<?xml version="1.0" encoding="utf-8"?>
<!-- Generator: Adobe Illustrator 18.0.0, SVG Export Plug-In . SVG Version: 6.00 Build 0)  -->
<!DOCTYPE svg PUBLIC "-//W3C//DTD SVG 1.0//EN" "http://www.w3.org/TR/2001/REC-SVG-20010904/DTD/svg10.dtd">
<svg version="1.0" id="Layer_1" xmlns="http://www.w3.org/2000/svg" xmlns:xlink="http://www.w3.org/1999/xlink" x="0px" y="0px"
	 viewBox="0 0 11 11" enable-background="new 0 0 11 11" xml:space="preserve">
<g>
	<path fill="#EC1C24" d="M5.5,0C5.4,0,5.3,0,5.2,0v1.4c0.1,0,0.2,0,0.3,0c2.3,0,4.1,1.9,4.1,4.1c0,2.3-1.9,4.1-4.1,4.1
		S1.4,7.8,1.4,5.5H0c0,3,2.5,5.5,5.5,5.5c3,0,5.5-2.5,5.5-5.5C11,2.5,8.5,0,5.5,0z"/>
	<polygon fill="#EC1C24" points="8.5,6.9 5.8,5.3 5.8,2.1 5.2,2.1 5.2,5.5 5.2,5.7 8.2,7.4 	"/>
</g>
<rect x="0" y="0" fill="none" width="14" height="11"/>
</svg>
