<?xml version="1.0" encoding="utf-8"?>
<!-- Generator: Adobe Illustrator 18.0.0, SVG Export Plug-In . SVG Version: 6.00 Build 0)  -->
<!DOCTYPE svg PUBLIC "-//W3C//DTD SVG 1.0//EN" "http://www.w3.org/TR/2001/REC-SVG-20010904/DTD/svg10.dtd">
<svg version="1.0" id="Layer_1" xmlns="http://www.w3.org/2000/svg" xmlns:xlink="http://www.w3.org/1999/xlink" x="0px" y="0px"
	 viewBox="0 0 311.2 66" enable-background="new 0 0 311.2 66" xml:space="preserve">
<symbol  id="Expiring_11" viewBox="-5.6 -5.6 14 11">
	<g>
		<path fill="#E52529" d="M-0.1,5.4c-0.1,0-0.2,0-0.3,0V4c0.1,0,0.2,0,0.3,0C2.2,4,4,2.2,4-0.1c0-2.3-1.9-4.1-4.1-4.1
			s-4.1,1.9-4.1,4.1h-1.4c0-3,2.5-5.5,5.5-5.5c3,0,5.5,2.5,5.5,5.5C5.4,3,3,5.4-0.1,5.4z"/>
		<polygon fill="#E52529" points="2.9,-1.4 0.3,0.1 0.3,3.4 -0.4,3.4 -0.4,-0.1 -0.4,-0.3 2.6,-2 		"/>
	</g>
	<polygon fill="none" points="8.4,-5.6 -5.6,-5.6 -5.6,5.4 8.4,5.4 	"/>
</symbol>
<symbol  id="iPlayer" viewBox="-15.4 -16.3 32 32">
	<polygon fill="none" points="16.6,-16.3 -15.4,-16.3 -15.4,15.7 16.6,15.7 	"/>
	<polygon fill="#010202" points="-1.2,6.8 -4.2,6.8 -4.2,3.8 -1.2,3.8 -1.2,5 4,0.3 -1.2,-4.5 -1.2,1.8 -4.2,1.8 -4.2,-6.2 
		-1.2,-6.2 5.8,0.3 	"/>
</symbol>
<g>
	<g>
		<g>
			<g>
				<g>
					<path fill="#221F1F" d="M34.4,16c0.1,0.2,0.3,0.5,0.5,0.6s0.5,0.3,0.8,0.3c0.3,0.1,0.6,0.1,0.9,0.1c0.2,0,0.4,0,0.7-0.1
						c0.2,0,0.5-0.1,0.7-0.2c0.2-0.1,0.4-0.2,0.5-0.4s0.2-0.4,0.2-0.7c0-0.3-0.1-0.5-0.3-0.7c-0.2-0.2-0.4-0.3-0.7-0.5
						c-0.3-0.1-0.6-0.2-1-0.3c-0.4-0.1-0.8-0.2-1.2-0.3c-0.4-0.1-0.8-0.2-1.2-0.4c-0.4-0.1-0.7-0.3-1-0.6c-0.3-0.2-0.5-0.5-0.7-0.9
						s-0.3-0.8-0.3-1.3c0-0.5,0.1-1,0.4-1.4c0.2-0.4,0.5-0.7,0.9-1c0.4-0.3,0.8-0.5,1.3-0.6s1-0.2,1.4-0.2c0.6,0,1.1,0.1,1.6,0.2
						s1,0.3,1.4,0.6s0.7,0.6,1,1.1c0.2,0.4,0.4,1,0.4,1.6h-2.3c0-0.3-0.1-0.6-0.2-0.8c-0.1-0.2-0.3-0.4-0.5-0.5
						c-0.2-0.1-0.4-0.2-0.7-0.3c-0.2-0.1-0.5-0.1-0.8-0.1c-0.2,0-0.4,0-0.6,0.1c-0.2,0-0.4,0.1-0.5,0.2c-0.2,0.1-0.3,0.2-0.4,0.4
						c-0.1,0.2-0.1,0.3-0.1,0.6c0,0.2,0,0.4,0.1,0.5s0.2,0.2,0.5,0.4c0.2,0.1,0.6,0.2,1,0.3c0.4,0.1,1,0.2,1.6,0.4
						c0.2,0,0.5,0.1,0.8,0.2c0.4,0.1,0.7,0.3,1.1,0.5c0.3,0.2,0.7,0.5,0.9,0.9s0.4,0.9,0.4,1.5c0,0.5-0.1,0.9-0.3,1.4
						c-0.2,0.4-0.5,0.8-0.8,1.1c-0.4,0.3-0.8,0.5-1.4,0.7s-1.2,0.3-1.9,0.3c-0.6,0-1.2-0.1-1.7-0.2c-0.6-0.1-1-0.4-1.5-0.7
						c-0.4-0.3-0.8-0.7-1-1.2c-0.2-0.5-0.4-1-0.4-1.7h2.3C34.2,15.4,34.2,15.7,34.4,16z"/>
					<path fill="#221F1F" d="M42.1,9.7V7.9h2.1v1.8H42.1z M44.2,10.9v7.8h-2.1v-7.8H44.2z"/>
					<path fill="#221F1F" d="M48.1,7.9v10.7H46V7.9H48.1z"/>
					<path fill="#221F1F" d="M52.1,16.8c0.3,0.3,0.8,0.5,1.4,0.5c0.4,0,0.8-0.1,1.1-0.3c0.3-0.2,0.5-0.4,0.6-0.7H57
						c-0.3,0.9-0.8,1.6-1.4,2c-0.6,0.4-1.4,0.6-2.2,0.6c-0.6,0-1.2-0.1-1.6-0.3c-0.5-0.2-0.9-0.5-1.2-0.8c-0.3-0.4-0.6-0.8-0.8-1.3
						c-0.2-0.5-0.3-1-0.3-1.7c0-0.6,0.1-1.1,0.3-1.6c0.2-0.5,0.5-0.9,0.8-1.3s0.8-0.7,1.3-0.9s1-0.3,1.6-0.3c0.7,0,1.2,0.1,1.7,0.4
						c0.5,0.3,0.9,0.6,1.2,1s0.5,0.9,0.7,1.5s0.2,1.1,0.1,1.7h-5.6C51.6,15.9,51.7,16.4,52.1,16.8z M54.5,12.7
						c-0.3-0.3-0.6-0.4-1.2-0.4c-0.3,0-0.6,0.1-0.8,0.2s-0.4,0.3-0.5,0.4s-0.2,0.3-0.3,0.5c-0.1,0.2-0.1,0.4-0.1,0.5H55
						C54.9,13.4,54.7,13,54.5,12.7z"/>
					<path fill="#221F1F" d="M60.4,10.9v1.1h0c0.3-0.5,0.6-0.8,1-1c0.4-0.2,0.9-0.3,1.3-0.3c0.6,0,1,0.1,1.4,0.2
						c0.4,0.2,0.7,0.4,0.9,0.6c0.2,0.3,0.4,0.6,0.4,1c0.1,0.4,0.1,0.8,0.1,1.3v4.8h-2.1v-4.4c0-0.6-0.1-1.1-0.3-1.4
						s-0.6-0.5-1.1-0.5c-0.6,0-1,0.2-1.3,0.5s-0.4,0.9-0.4,1.7v4.1h-2.1v-7.8H60.4z"/>
					<path fill="#221F1F" d="M71.5,10.9v1.4H70v3.8c0,0.4,0.1,0.6,0.2,0.7c0.1,0.1,0.4,0.2,0.7,0.2c0.1,0,0.2,0,0.3,0
						c0.1,0,0.2,0,0.3,0v1.7c-0.2,0-0.4,0-0.6,0.1c-0.2,0-0.4,0-0.6,0c-0.3,0-0.6,0-0.9-0.1c-0.3,0-0.6-0.1-0.8-0.3S68.2,18,68,17.8
						c-0.1-0.2-0.2-0.6-0.2-0.9v-4.6h-1.3v-1.4h1.3V8.5H70v2.3H71.5z"/>
					<path fill="#221F1F" d="M84.8,18.6L83,11.3h0l-1.8,7.3h-2.4L75.9,7.9h2.4l1.7,7.3h0l1.9-7.3h2.2l1.8,7.4h0l1.8-7.4H90
						l-2.9,10.7H84.8z"/>
					<path fill="#221F1F" d="M90.9,9.7V7.9H93v1.8H90.9z M93,10.9v7.8h-2.1v-7.8H93z"/>
					<path fill="#221F1F" d="M99,10.9v1.4h-1.6v3.8c0,0.4,0.1,0.6,0.2,0.7C97.7,17,98,17,98.3,17c0.1,0,0.2,0,0.3,0
						c0.1,0,0.2,0,0.3,0v1.7c-0.2,0-0.4,0-0.6,0.1c-0.2,0-0.4,0-0.6,0c-0.3,0-0.6,0-0.9-0.1c-0.3,0-0.6-0.1-0.8-0.3
						s-0.4-0.3-0.5-0.6c-0.1-0.2-0.2-0.6-0.2-0.9v-4.6H94v-1.4h1.3V8.5h2.1v2.3H99z"/>
					<path fill="#221F1F" d="M102,10.9v1.1h0c0.3-0.5,0.6-0.8,1-1c0.4-0.2,0.9-0.3,1.3-0.3c0.6,0,1,0.1,1.4,0.2
						c0.4,0.2,0.7,0.4,0.9,0.6c0.2,0.3,0.4,0.6,0.4,1c0.1,0.4,0.1,0.8,0.1,1.3v4.8h-2.1v-4.4c0-0.6-0.1-1.1-0.3-1.4
						s-0.6-0.5-1.1-0.5c-0.6,0-1,0.2-1.3,0.5s-0.4,0.9-0.4,1.7v4.1H100v-7.8H102z"/>
					<path fill="#221F1F" d="M111.2,16.8c0.3,0.3,0.8,0.5,1.4,0.5c0.4,0,0.8-0.1,1.1-0.3c0.3-0.2,0.5-0.4,0.6-0.7h1.9
						c-0.3,0.9-0.8,1.6-1.4,2c-0.6,0.4-1.4,0.6-2.2,0.6c-0.6,0-1.2-0.1-1.6-0.3c-0.5-0.2-0.9-0.5-1.2-0.8c-0.3-0.4-0.6-0.8-0.8-1.3
						c-0.2-0.5-0.3-1-0.3-1.7c0-0.6,0.1-1.1,0.3-1.6c0.2-0.5,0.5-0.9,0.8-1.3s0.8-0.7,1.3-0.9s1-0.3,1.6-0.3c0.7,0,1.2,0.1,1.7,0.4
						c0.5,0.3,0.9,0.6,1.2,1s0.5,0.9,0.7,1.5s0.2,1.1,0.1,1.7h-5.6C110.7,15.9,110.8,16.4,111.2,16.8z M113.6,12.7
						c-0.3-0.3-0.6-0.4-1.2-0.4c-0.3,0-0.6,0.1-0.8,0.2s-0.4,0.3-0.5,0.4s-0.2,0.3-0.3,0.5c-0.1,0.2-0.1,0.4-0.1,0.5h3.5
						C114,13.4,113.8,13,113.6,12.7z"/>
					<path fill="#221F1F" d="M119.3,16.7c0.1,0.2,0.2,0.3,0.4,0.4c0.1,0.1,0.3,0.2,0.5,0.2c0.2,0,0.4,0.1,0.6,0.1
						c0.1,0,0.3,0,0.5-0.1s0.3-0.1,0.4-0.2s0.2-0.2,0.3-0.3s0.1-0.3,0.1-0.5c0-0.3-0.2-0.6-0.6-0.7s-1-0.3-1.8-0.5
						c-0.3-0.1-0.6-0.2-0.9-0.2s-0.6-0.2-0.8-0.4c-0.2-0.2-0.4-0.3-0.6-0.6c-0.1-0.2-0.2-0.5-0.2-0.9c0-0.5,0.1-0.9,0.3-1.2
						c0.2-0.3,0.5-0.6,0.8-0.8c0.3-0.2,0.7-0.3,1.1-0.4s0.8-0.1,1.2-0.1c0.4,0,0.8,0,1.2,0.1c0.4,0.1,0.7,0.2,1.1,0.4
						c0.3,0.2,0.6,0.4,0.8,0.8c0.2,0.3,0.3,0.7,0.4,1.2h-2c0-0.4-0.2-0.7-0.5-0.8c-0.3-0.1-0.6-0.2-1-0.2c-0.1,0-0.2,0-0.4,0
						s-0.3,0-0.4,0.1c-0.1,0-0.2,0.1-0.3,0.2c-0.1,0.1-0.1,0.2-0.1,0.4c0,0.2,0.1,0.3,0.2,0.5c0.1,0.1,0.3,0.2,0.5,0.3
						c0.2,0.1,0.5,0.1,0.8,0.2c0.3,0.1,0.6,0.1,0.9,0.2c0.3,0.1,0.6,0.2,0.9,0.3c0.3,0.1,0.6,0.2,0.8,0.4c0.2,0.2,0.4,0.4,0.6,0.6
						s0.2,0.5,0.2,0.9c0,0.5-0.1,0.9-0.3,1.3c-0.2,0.3-0.5,0.6-0.8,0.8c-0.3,0.2-0.7,0.4-1.1,0.4s-0.9,0.1-1.3,0.1
						c-0.4,0-0.9,0-1.3-0.1c-0.4-0.1-0.8-0.2-1.1-0.4c-0.3-0.2-0.6-0.5-0.8-0.8s-0.3-0.8-0.4-1.3h2
						C119.1,16.3,119.2,16.5,119.3,16.7z"/>
					<path fill="#221F1F" d="M127.3,16.7c0.1,0.2,0.2,0.3,0.4,0.4c0.1,0.1,0.3,0.2,0.5,0.2c0.2,0,0.4,0.1,0.6,0.1
						c0.1,0,0.3,0,0.5-0.1s0.3-0.1,0.4-0.2s0.2-0.2,0.3-0.3s0.1-0.3,0.1-0.5c0-0.3-0.2-0.6-0.6-0.7s-1-0.3-1.8-0.5
						c-0.3-0.1-0.6-0.2-0.9-0.2s-0.6-0.2-0.8-0.4c-0.2-0.2-0.4-0.3-0.6-0.6c-0.1-0.2-0.2-0.5-0.2-0.9c0-0.5,0.1-0.9,0.3-1.2
						c0.2-0.3,0.5-0.6,0.8-0.8c0.3-0.2,0.7-0.3,1.1-0.4s0.8-0.1,1.2-0.1c0.4,0,0.8,0,1.2,0.1c0.4,0.1,0.7,0.2,1.1,0.4
						c0.3,0.2,0.6,0.4,0.8,0.8c0.2,0.3,0.3,0.7,0.4,1.2h-2c0-0.4-0.2-0.7-0.5-0.8c-0.3-0.1-0.6-0.2-1-0.2c-0.1,0-0.2,0-0.4,0
						s-0.3,0-0.4,0.1c-0.1,0-0.2,0.1-0.3,0.2c-0.1,0.1-0.1,0.2-0.1,0.4c0,0.2,0.1,0.3,0.2,0.5c0.1,0.1,0.3,0.2,0.5,0.3
						c0.2,0.1,0.5,0.1,0.8,0.2c0.3,0.1,0.6,0.1,0.9,0.2c0.3,0.1,0.6,0.2,0.9,0.3c0.3,0.1,0.6,0.2,0.8,0.4c0.2,0.2,0.4,0.4,0.6,0.6
						s0.2,0.5,0.2,0.9c0,0.5-0.1,0.9-0.3,1.3c-0.2,0.3-0.5,0.6-0.8,0.8c-0.3,0.2-0.7,0.4-1.1,0.4s-0.9,0.1-1.3,0.1
						c-0.4,0-0.9,0-1.3-0.1c-0.4-0.1-0.8-0.2-1.1-0.4c-0.3-0.2-0.6-0.5-0.8-0.8s-0.3-0.8-0.4-1.3h2
						C127.2,16.3,127.2,16.5,127.3,16.7z"/>
					<path fill="#221F1F" d="M140,16.8c0.3,0.3,0.8,0.5,1.4,0.5c0.4,0,0.8-0.1,1.1-0.3c0.3-0.2,0.5-0.4,0.6-0.7h1.9
						c-0.3,0.9-0.8,1.6-1.4,2c-0.6,0.4-1.4,0.6-2.2,0.6c-0.6,0-1.2-0.1-1.6-0.3c-0.5-0.2-0.9-0.5-1.2-0.8c-0.3-0.4-0.6-0.8-0.8-1.3
						c-0.2-0.5-0.3-1-0.3-1.7c0-0.6,0.1-1.1,0.3-1.6c0.2-0.5,0.5-0.9,0.8-1.3s0.8-0.7,1.3-0.9s1-0.3,1.6-0.3c0.7,0,1.2,0.1,1.7,0.4
						c0.5,0.3,0.9,0.6,1.2,1s0.5,0.9,0.7,1.5s0.2,1.1,0.1,1.7h-5.6C139.5,15.9,139.7,16.4,140,16.8z M142.4,12.7
						c-0.3-0.3-0.6-0.4-1.2-0.4c-0.3,0-0.6,0.1-0.8,0.2s-0.4,0.3-0.5,0.4s-0.2,0.3-0.3,0.5c-0.1,0.2-0.1,0.4-0.1,0.5h3.5
						C142.8,13.4,142.7,13,142.4,12.7z"/>
					<path fill="#221F1F" d="M148.4,10.9v1h0c0.3-0.4,0.6-0.7,1-0.9c0.4-0.2,0.8-0.3,1.3-0.3c0.6,0,1.1,0.1,1.6,0.3
						c0.4,0.2,0.8,0.5,1.1,0.9s0.5,0.8,0.6,1.3c0.1,0.5,0.2,1,0.2,1.6c0,0.5-0.1,1-0.2,1.5c-0.1,0.5-0.4,0.9-0.6,1.3
						c-0.3,0.4-0.6,0.7-1.1,0.9c-0.4,0.2-0.9,0.3-1.5,0.3c-0.5,0-0.9-0.1-1.3-0.3s-0.7-0.5-1-0.9h0v3.7h-2.1V10.9H148.4z M151.1,17
						c0.2-0.1,0.4-0.3,0.6-0.5c0.1-0.2,0.2-0.5,0.3-0.8c0.1-0.3,0.1-0.6,0.1-0.9c0-0.3,0-0.6-0.1-0.9c-0.1-0.3-0.2-0.6-0.3-0.8
						c-0.1-0.2-0.3-0.4-0.6-0.6c-0.2-0.1-0.5-0.2-0.9-0.2c-0.4,0-0.6,0.1-0.9,0.2c-0.2,0.1-0.4,0.3-0.6,0.6
						c-0.1,0.2-0.2,0.5-0.3,0.8c-0.1,0.3-0.1,0.6-0.1,0.9c0,0.3,0,0.6,0.1,0.9c0.1,0.3,0.2,0.6,0.3,0.8c0.1,0.2,0.3,0.4,0.6,0.5
						c0.2,0.1,0.5,0.2,0.9,0.2C150.6,17.2,150.9,17.2,151.1,17z"/>
					<path fill="#221F1F" d="M155.5,9.7V7.9h2.1v1.8H155.5z M157.7,10.9v7.8h-2.1v-7.8H157.7z"/>
					<path fill="#221F1F" d="M161.1,16.7c0.1,0.2,0.2,0.3,0.4,0.4c0.1,0.1,0.3,0.2,0.5,0.2c0.2,0,0.4,0.1,0.6,0.1
						c0.1,0,0.3,0,0.5-0.1s0.3-0.1,0.4-0.2s0.2-0.2,0.3-0.3s0.1-0.3,0.1-0.5c0-0.3-0.2-0.6-0.6-0.7s-1-0.3-1.8-0.5
						c-0.3-0.1-0.6-0.2-0.9-0.2s-0.6-0.2-0.8-0.4c-0.2-0.2-0.4-0.3-0.6-0.6c-0.1-0.2-0.2-0.5-0.2-0.9c0-0.5,0.1-0.9,0.3-1.2
						c0.2-0.3,0.5-0.6,0.8-0.8c0.3-0.2,0.7-0.3,1.1-0.4s0.8-0.1,1.2-0.1c0.4,0,0.8,0,1.2,0.1c0.4,0.1,0.7,0.2,1.1,0.4
						c0.3,0.2,0.6,0.4,0.8,0.8c0.2,0.3,0.3,0.7,0.4,1.2h-2c0-0.4-0.2-0.7-0.5-0.8c-0.3-0.1-0.6-0.2-1-0.2c-0.1,0-0.2,0-0.4,0
						s-0.3,0-0.4,0.1c-0.1,0-0.2,0.1-0.3,0.2c-0.1,0.1-0.1,0.2-0.1,0.4c0,0.2,0.1,0.3,0.2,0.5c0.1,0.1,0.3,0.2,0.5,0.3
						c0.2,0.1,0.5,0.1,0.8,0.2c0.3,0.1,0.6,0.1,0.9,0.2c0.3,0.1,0.6,0.2,0.9,0.3c0.3,0.1,0.6,0.2,0.8,0.4c0.2,0.2,0.4,0.4,0.6,0.6
						s0.2,0.5,0.2,0.9c0,0.5-0.1,0.9-0.3,1.3c-0.2,0.3-0.5,0.6-0.8,0.8c-0.3,0.2-0.7,0.4-1.1,0.4s-0.9,0.1-1.3,0.1
						c-0.4,0-0.9,0-1.3-0.1c-0.4-0.1-0.8-0.2-1.1-0.4c-0.3-0.2-0.6-0.5-0.8-0.8s-0.3-0.8-0.4-1.3h2C161,16.3,161,16.5,161.1,16.7z"
						/>
					<path fill="#221F1F" d="M167.4,13.1c0.2-0.5,0.5-0.9,0.8-1.3c0.3-0.4,0.8-0.6,1.3-0.8c0.5-0.2,1-0.3,1.6-0.3
						c0.6,0,1.2,0.1,1.7,0.3c0.5,0.2,0.9,0.5,1.3,0.8c0.3,0.4,0.6,0.8,0.8,1.3c0.2,0.5,0.3,1.1,0.3,1.7s-0.1,1.2-0.3,1.7
						c-0.2,0.5-0.5,0.9-0.8,1.3c-0.3,0.4-0.8,0.6-1.3,0.8c-0.5,0.2-1,0.3-1.7,0.3c-0.6,0-1.2-0.1-1.6-0.3c-0.5-0.2-0.9-0.5-1.3-0.8
						c-0.3-0.4-0.6-0.8-0.8-1.3c-0.2-0.5-0.3-1.1-0.3-1.7S167.3,13.6,167.4,13.1z M169.4,15.7c0.1,0.3,0.2,0.6,0.3,0.8
						c0.1,0.2,0.3,0.4,0.6,0.6c0.2,0.1,0.5,0.2,0.9,0.2c0.4,0,0.7-0.1,0.9-0.2c0.2-0.1,0.4-0.3,0.6-0.6c0.1-0.2,0.2-0.5,0.3-0.8
						c0.1-0.3,0.1-0.6,0.1-0.9c0-0.3,0-0.6-0.1-0.9c-0.1-0.3-0.2-0.6-0.3-0.8c-0.1-0.2-0.3-0.4-0.6-0.6c-0.2-0.1-0.5-0.2-0.9-0.2
						c-0.4,0-0.7,0.1-0.9,0.2c-0.2,0.1-0.4,0.3-0.6,0.6c-0.1,0.2-0.2,0.5-0.3,0.8c-0.1,0.3-0.1,0.6-0.1,0.9
						C169.3,15.1,169.3,15.4,169.4,15.7z"/>
					<path fill="#221F1F" d="M182,17.6c-0.2,0.4-0.6,0.7-1,0.9c-0.4,0.2-0.9,0.3-1.4,0.3c-0.6,0-1.1-0.1-1.5-0.3
						c-0.4-0.2-0.8-0.5-1.1-0.9c-0.3-0.4-0.5-0.8-0.6-1.3c-0.1-0.5-0.2-1-0.2-1.6c0-0.5,0.1-1,0.2-1.5c0.1-0.5,0.4-0.9,0.6-1.3
						c0.3-0.4,0.6-0.7,1.1-0.9c0.4-0.2,0.9-0.3,1.5-0.3c0.5,0,0.9,0.1,1.3,0.3c0.4,0.2,0.7,0.5,1,0.9h0V7.9h2.1v10.7h-2L182,17.6
						L182,17.6z M182,13.8c-0.1-0.3-0.2-0.6-0.3-0.8c-0.1-0.2-0.3-0.4-0.6-0.5c-0.2-0.1-0.5-0.2-0.9-0.2s-0.6,0.1-0.9,0.2
						c-0.2,0.1-0.4,0.3-0.6,0.6c-0.1,0.2-0.2,0.5-0.3,0.8c-0.1,0.3-0.1,0.6-0.1,0.9c0,0.3,0,0.6,0.1,0.9c0.1,0.3,0.2,0.6,0.3,0.8
						c0.2,0.2,0.3,0.4,0.6,0.6c0.2,0.1,0.5,0.2,0.8,0.2c0.3,0,0.6-0.1,0.9-0.2c0.2-0.1,0.4-0.3,0.6-0.6c0.1-0.2,0.2-0.5,0.3-0.8
						c0.1-0.3,0.1-0.6,0.1-0.9C182,14.4,182,14.1,182,13.8z"/>
					<path fill="#221F1F" d="M188,16.8c0.3,0.3,0.8,0.5,1.4,0.5c0.4,0,0.8-0.1,1.1-0.3c0.3-0.2,0.5-0.4,0.6-0.7h1.9
						c-0.3,0.9-0.8,1.6-1.4,2c-0.6,0.4-1.4,0.6-2.2,0.6c-0.6,0-1.2-0.1-1.6-0.3c-0.5-0.2-0.9-0.5-1.2-0.8c-0.3-0.4-0.6-0.8-0.8-1.3
						c-0.2-0.5-0.3-1-0.3-1.7c0-0.6,0.1-1.1,0.3-1.6c0.2-0.5,0.5-0.9,0.8-1.3s0.8-0.7,1.3-0.9s1-0.3,1.6-0.3c0.7,0,1.2,0.1,1.7,0.4
						c0.5,0.3,0.9,0.6,1.2,1s0.5,0.9,0.7,1.5s0.2,1.1,0.1,1.7h-5.6C187.5,15.9,187.7,16.4,188,16.8z M190.4,12.7
						c-0.3-0.3-0.6-0.4-1.2-0.4c-0.3,0-0.6,0.1-0.8,0.2s-0.4,0.3-0.5,0.4s-0.2,0.3-0.3,0.5c-0.1,0.2-0.1,0.4-0.1,0.5h3.5
						C190.8,13.4,190.6,13,190.4,12.7z"/>
					<path fill="#221F1F" d="M200.7,16.8c0.3,0.3,0.8,0.5,1.4,0.5c0.4,0,0.8-0.1,1.1-0.3c0.3-0.2,0.5-0.4,0.6-0.7h1.9
						c-0.3,0.9-0.8,1.6-1.4,2c-0.6,0.4-1.4,0.6-2.2,0.6c-0.6,0-1.2-0.1-1.6-0.3c-0.5-0.2-0.9-0.5-1.2-0.8c-0.3-0.4-0.6-0.8-0.8-1.3
						c-0.2-0.5-0.3-1-0.3-1.7c0-0.6,0.1-1.1,0.3-1.6c0.2-0.5,0.5-0.9,0.8-1.3s0.8-0.7,1.3-0.9s1-0.3,1.6-0.3c0.7,0,1.2,0.1,1.7,0.4
						c0.5,0.3,0.9,0.6,1.2,1s0.5,0.9,0.7,1.5s0.2,1.1,0.1,1.7h-5.6C200.3,15.9,200.4,16.4,200.7,16.8z M203.2,12.7
						c-0.3-0.3-0.6-0.4-1.2-0.4c-0.3,0-0.6,0.1-0.8,0.2s-0.4,0.3-0.5,0.4s-0.2,0.3-0.3,0.5c-0.1,0.2-0.1,0.4-0.1,0.5h3.5
						C203.6,13.4,203.4,13,203.2,12.7z"/>
					<path fill="#221F1F" d="M206.5,10.9h2.4l1.4,2l1.3-2h2.4l-2.5,3.6l2.9,4.1h-2.4l-1.6-2.4l-1.6,2.4h-2.4l2.8-4.1L206.5,10.9z"/>
					<path fill="#221F1F" d="M217.1,10.9v1h0c0.3-0.4,0.6-0.7,1-0.9c0.4-0.2,0.8-0.3,1.3-0.3c0.6,0,1.1,0.1,1.6,0.3
						c0.4,0.2,0.8,0.5,1.1,0.9s0.5,0.8,0.6,1.3c0.1,0.5,0.2,1,0.2,1.6c0,0.5-0.1,1-0.2,1.5c-0.1,0.5-0.4,0.9-0.6,1.3
						c-0.3,0.4-0.6,0.7-1.1,0.9c-0.4,0.2-0.9,0.3-1.5,0.3c-0.5,0-0.9-0.1-1.3-0.3s-0.7-0.5-1-0.9h0v3.7h-2.1V10.9H217.1z M219.9,17
						c0.2-0.1,0.4-0.3,0.6-0.5c0.1-0.2,0.2-0.5,0.3-0.8c0.1-0.3,0.1-0.6,0.1-0.9c0-0.3,0-0.6-0.1-0.9c-0.1-0.3-0.2-0.6-0.3-0.8
						c-0.1-0.2-0.3-0.4-0.6-0.6c-0.2-0.1-0.5-0.2-0.9-0.2c-0.4,0-0.6,0.1-0.9,0.2c-0.2,0.1-0.4,0.3-0.6,0.6
						c-0.1,0.2-0.2,0.5-0.3,0.8c-0.1,0.3-0.1,0.6-0.1,0.9c0,0.3,0,0.6,0.1,0.9c0.1,0.3,0.2,0.6,0.3,0.8c0.1,0.2,0.3,0.4,0.6,0.5
						c0.2,0.1,0.5,0.2,0.9,0.2C219.4,17.2,219.7,17.2,219.9,17z"/>
					<path fill="#221F1F" d="M224.3,9.7V7.9h2.1v1.8H224.3z M226.5,10.9v7.8h-2.1v-7.8H226.5z"/>
					<path fill="#221F1F" d="M230.2,10.9v1.4h0c0.1-0.2,0.2-0.5,0.4-0.7c0.2-0.2,0.4-0.4,0.6-0.5c0.2-0.1,0.5-0.3,0.7-0.3
						s0.5-0.1,0.8-0.1c0.1,0,0.3,0,0.5,0.1v2c-0.1,0-0.2,0-0.4-0.1c-0.1,0-0.3,0-0.4,0c-0.4,0-0.7,0.1-1,0.2
						c-0.3,0.1-0.5,0.3-0.7,0.5c-0.2,0.2-0.3,0.5-0.4,0.8c-0.1,0.3-0.1,0.6-0.1,1v3.5h-2.1v-7.8H230.2z"/>
					<path fill="#221F1F" d="M236,16.8c0.3,0.3,0.8,0.5,1.4,0.5c0.4,0,0.8-0.1,1.1-0.3c0.3-0.2,0.5-0.4,0.6-0.7h1.9
						c-0.3,0.9-0.8,1.6-1.4,2c-0.6,0.4-1.4,0.6-2.2,0.6c-0.6,0-1.2-0.1-1.6-0.3c-0.5-0.2-0.9-0.5-1.2-0.8c-0.3-0.4-0.6-0.8-0.8-1.3
						c-0.2-0.5-0.3-1-0.3-1.7c0-0.6,0.1-1.1,0.3-1.6c0.2-0.5,0.5-0.9,0.8-1.3s0.8-0.7,1.3-0.9s1-0.3,1.6-0.3c0.7,0,1.2,0.1,1.7,0.4
						c0.5,0.3,0.9,0.6,1.2,1s0.5,0.9,0.7,1.5s0.2,1.1,0.1,1.7h-5.6C235.5,15.9,235.7,16.4,236,16.8z M238.4,12.7
						c-0.3-0.3-0.6-0.4-1.2-0.4c-0.3,0-0.6,0.1-0.8,0.2s-0.4,0.3-0.5,0.4s-0.2,0.3-0.3,0.5c-0.1,0.2-0.1,0.4-0.1,0.5h3.5
						C238.8,13.4,238.6,13,238.4,12.7z"/>
					<path fill="#221F1F" d="M244.1,16.7c0.1,0.2,0.2,0.3,0.4,0.4c0.1,0.1,0.3,0.2,0.5,0.2c0.2,0,0.4,0.1,0.6,0.1
						c0.1,0,0.3,0,0.5-0.1s0.3-0.1,0.4-0.2s0.2-0.2,0.3-0.3s0.1-0.3,0.1-0.5c0-0.3-0.2-0.6-0.6-0.7s-1-0.3-1.8-0.5
						c-0.3-0.1-0.6-0.2-0.9-0.2s-0.6-0.2-0.8-0.4c-0.2-0.2-0.4-0.3-0.6-0.6c-0.1-0.2-0.2-0.5-0.2-0.9c0-0.5,0.1-0.9,0.3-1.2
						c0.2-0.3,0.5-0.6,0.8-0.8c0.3-0.2,0.7-0.3,1.1-0.4s0.8-0.1,1.2-0.1c0.4,0,0.8,0,1.2,0.1c0.4,0.1,0.7,0.2,1.1,0.4
						c0.3,0.2,0.6,0.4,0.8,0.8c0.2,0.3,0.3,0.7,0.4,1.2h-2c0-0.4-0.2-0.7-0.5-0.8c-0.3-0.1-0.6-0.2-1-0.2c-0.1,0-0.2,0-0.4,0
						s-0.3,0-0.4,0.1c-0.1,0-0.2,0.1-0.3,0.2c-0.1,0.1-0.1,0.2-0.1,0.4c0,0.2,0.1,0.3,0.2,0.5c0.1,0.1,0.3,0.2,0.5,0.3
						c0.2,0.1,0.5,0.1,0.8,0.2c0.3,0.1,0.6,0.1,0.9,0.2c0.3,0.1,0.6,0.2,0.9,0.3c0.3,0.1,0.6,0.2,0.8,0.4c0.2,0.2,0.4,0.4,0.6,0.6
						s0.2,0.5,0.2,0.9c0,0.5-0.1,0.9-0.3,1.3c-0.2,0.3-0.5,0.6-0.8,0.8c-0.3,0.2-0.7,0.4-1.1,0.4s-0.9,0.1-1.3,0.1
						c-0.4,0-0.9,0-1.3-0.1c-0.4-0.1-0.8-0.2-1.1-0.4c-0.3-0.2-0.6-0.5-0.8-0.8s-0.3-0.8-0.4-1.3h2C243.9,16.3,244,16.5,244.1,16.7z
						"/>
					<path fill="#221F1F" d="M258.8,10.9v1.4h-1.6v3.8c0,0.4,0.1,0.6,0.2,0.7c0.1,0.1,0.4,0.2,0.7,0.2c0.1,0,0.2,0,0.3,0
						c0.1,0,0.2,0,0.3,0v1.7c-0.2,0-0.4,0-0.6,0.1c-0.2,0-0.4,0-0.6,0c-0.3,0-0.6,0-0.9-0.1c-0.3,0-0.6-0.1-0.8-0.3
						s-0.4-0.3-0.5-0.6c-0.1-0.2-0.2-0.6-0.2-0.9v-4.6h-1.3v-1.4h1.3V8.5h2.1v2.3H258.8z"/>
					<path fill="#221F1F" d="M259.8,13.1c0.2-0.5,0.5-0.9,0.8-1.3c0.3-0.4,0.8-0.6,1.3-0.8c0.5-0.2,1-0.3,1.6-0.3
						c0.6,0,1.2,0.1,1.7,0.3c0.5,0.2,0.9,0.5,1.3,0.8c0.3,0.4,0.6,0.8,0.8,1.3c0.2,0.5,0.3,1.1,0.3,1.7s-0.1,1.2-0.3,1.7
						c-0.2,0.5-0.5,0.9-0.8,1.3c-0.3,0.4-0.8,0.6-1.3,0.8c-0.5,0.2-1,0.3-1.7,0.3c-0.6,0-1.2-0.1-1.6-0.3c-0.5-0.2-0.9-0.5-1.3-0.8
						c-0.3-0.4-0.6-0.8-0.8-1.3c-0.2-0.5-0.3-1.1-0.3-1.7S259.6,13.6,259.8,13.1z M261.8,15.7c0.1,0.3,0.2,0.6,0.3,0.8
						c0.1,0.2,0.3,0.4,0.6,0.6c0.2,0.1,0.5,0.2,0.9,0.2c0.4,0,0.7-0.1,0.9-0.2c0.2-0.1,0.4-0.3,0.6-0.6c0.1-0.2,0.2-0.5,0.3-0.8
						c0.1-0.3,0.1-0.6,0.1-0.9c0-0.3,0-0.6-0.1-0.9c-0.1-0.3-0.2-0.6-0.3-0.8c-0.1-0.2-0.3-0.4-0.6-0.6c-0.2-0.1-0.5-0.2-0.9-0.2
						c-0.4,0-0.7,0.1-0.9,0.2c-0.2,0.1-0.4,0.3-0.6,0.6c-0.1,0.2-0.2,0.5-0.3,0.8c-0.1,0.3-0.1,0.6-0.1,0.9
						C261.7,15.1,261.7,15.4,261.8,15.7z"/>
					<path fill="#221F1F" d="M274.4,17.6c-0.2,0.4-0.6,0.7-1,0.9c-0.4,0.2-0.9,0.3-1.4,0.3c-0.6,0-1.1-0.1-1.5-0.3
						c-0.4-0.2-0.8-0.5-1.1-0.9c-0.3-0.4-0.5-0.8-0.6-1.3c-0.1-0.5-0.2-1-0.2-1.6c0-0.5,0.1-1,0.2-1.5c0.1-0.5,0.4-0.9,0.6-1.3
						c0.3-0.4,0.6-0.7,1.1-0.9c0.4-0.2,0.9-0.3,1.5-0.3c0.5,0,0.9,0.1,1.3,0.3c0.4,0.2,0.7,0.5,1,0.9h0V7.9h2.1v10.7h-2L274.4,17.6
						L274.4,17.6z M274.3,13.8c-0.1-0.3-0.2-0.6-0.3-0.8c-0.1-0.2-0.3-0.4-0.6-0.5c-0.2-0.1-0.5-0.2-0.9-0.2s-0.6,0.1-0.9,0.2
						c-0.2,0.1-0.4,0.3-0.6,0.6c-0.1,0.2-0.2,0.5-0.3,0.8c-0.1,0.3-0.1,0.6-0.1,0.9c0,0.3,0,0.6,0.1,0.9c0.1,0.3,0.2,0.6,0.3,0.8
						c0.2,0.2,0.3,0.4,0.6,0.6c0.2,0.1,0.5,0.2,0.8,0.2c0.3,0,0.6-0.1,0.9-0.2c0.2-0.1,0.4-0.3,0.6-0.6c0.1-0.2,0.2-0.5,0.3-0.8
						c0.1-0.3,0.1-0.6,0.1-0.9C274.4,14.4,274.4,14.1,274.3,13.8z"/>
					<path fill="#221F1F" d="M278.4,12c0.2-0.3,0.5-0.6,0.8-0.8s0.7-0.3,1.1-0.4c0.4-0.1,0.9-0.1,1.3-0.1c0.4,0,0.8,0,1.2,0.1
						c0.4,0.1,0.8,0.2,1.1,0.3c0.3,0.2,0.6,0.4,0.8,0.7s0.3,0.7,0.3,1.1v4c0,0.3,0,0.7,0.1,1s0.1,0.6,0.2,0.7h-2.2
						c0-0.1-0.1-0.2-0.1-0.4c0-0.1,0-0.3-0.1-0.4c-0.3,0.4-0.7,0.6-1.2,0.7c-0.5,0.1-0.9,0.2-1.4,0.2c-0.4,0-0.7,0-1-0.1
						c-0.3-0.1-0.6-0.2-0.8-0.4c-0.2-0.2-0.4-0.4-0.6-0.7s-0.2-0.6-0.2-1c0-0.4,0.1-0.8,0.2-1.1c0.2-0.3,0.4-0.5,0.6-0.7
						c0.2-0.2,0.5-0.3,0.8-0.4c0.3-0.1,0.6-0.2,1-0.2c0.3,0,0.6-0.1,0.9-0.1c0.3,0,0.6-0.1,0.8-0.1c0.2-0.1,0.4-0.1,0.6-0.3
						s0.2-0.3,0.2-0.5c0-0.2,0-0.4-0.1-0.5c-0.1-0.1-0.2-0.2-0.3-0.3s-0.3-0.1-0.4-0.2c-0.2,0-0.3,0-0.5,0c-0.4,0-0.7,0.1-1,0.3
						c-0.2,0.2-0.4,0.5-0.4,0.9H278C278,12.7,278.2,12.3,278.4,12z M282.6,15c-0.1,0-0.3,0.1-0.4,0.1c-0.2,0-0.3,0.1-0.5,0.1
						c-0.2,0-0.3,0-0.5,0.1c-0.2,0-0.3,0.1-0.5,0.1c-0.2,0-0.3,0.1-0.4,0.2c-0.1,0.1-0.2,0.2-0.3,0.3c-0.1,0.1-0.1,0.3-0.1,0.5
						c0,0.2,0,0.4,0.1,0.5c0.1,0.1,0.2,0.2,0.3,0.3c0.1,0.1,0.3,0.1,0.4,0.2c0.2,0,0.3,0,0.5,0c0.4,0,0.7-0.1,1-0.2
						c0.2-0.1,0.4-0.3,0.5-0.5c0.1-0.2,0.2-0.4,0.2-0.6c0-0.2,0-0.4,0-0.5v-0.8C282.8,14.9,282.7,15,282.6,15z"/>
					<path fill="#221F1F" d="M289.6,20.9c-0.4,0.3-1,0.4-1.7,0.4c-0.2,0-0.4,0-0.7,0s-0.4,0-0.7-0.1v-1.8c0.2,0,0.4,0,0.6,0.1
						c0.2,0,0.4,0,0.6,0c0.3,0,0.5-0.1,0.6-0.3s0.2-0.4,0.2-0.6c0-0.2,0-0.3-0.1-0.5l-2.7-7.3h2.3l1.8,5.3h0l1.7-5.3h2.2l-3.2,8.7
						C290.3,20.2,290,20.7,289.6,20.9z"/>
					<path fill="#221F1F" d="M296.9,16.3v2.3h-2.4v-2.3H296.9z M296.3,15.4h-1.1l-0.6-4.6V7.9h2.2v2.9L296.3,15.4z"/>
					<path fill="#221F1F" d="M37.4,25.9c0.7,0,1.2,0.1,1.7,0.3c0.5,0.2,0.9,0.5,1.1,0.8c0.3,0.3,0.5,0.7,0.6,1.1
						c0.1,0.4,0.2,0.8,0.2,1.3c0,0.4-0.1,0.9-0.2,1.3c-0.1,0.4-0.3,0.8-0.6,1.1c-0.3,0.3-0.7,0.6-1.1,0.8c-0.5,0.2-1,0.3-1.7,0.3
						h-2.5v3.8h-2.4V25.9H37.4z M36.7,30.9c0.3,0,0.5,0,0.8-0.1c0.2,0,0.5-0.1,0.7-0.2c0.2-0.1,0.3-0.3,0.5-0.5s0.2-0.5,0.2-0.8
						c0-0.3-0.1-0.6-0.2-0.8s-0.3-0.4-0.5-0.5c-0.2-0.1-0.4-0.2-0.7-0.2c-0.2,0-0.5-0.1-0.8-0.1h-1.8v3.2H36.7z"/>
					<path fill="#221F1F" d="M42.6,30c0.2-0.3,0.5-0.6,0.8-0.8s0.7-0.3,1.1-0.4c0.4-0.1,0.9-0.1,1.3-0.1c0.4,0,0.8,0,1.2,0.1
						c0.4,0.1,0.8,0.2,1.1,0.3c0.3,0.2,0.6,0.4,0.8,0.7s0.3,0.7,0.3,1.1v4c0,0.3,0,0.7,0.1,1s0.1,0.6,0.2,0.7h-2.2
						c0-0.1-0.1-0.2-0.1-0.4c0-0.1,0-0.3-0.1-0.4c-0.3,0.4-0.7,0.6-1.2,0.7c-0.5,0.1-0.9,0.2-1.4,0.2c-0.4,0-0.7,0-1-0.1
						c-0.3-0.1-0.6-0.2-0.8-0.4c-0.2-0.2-0.4-0.4-0.6-0.7s-0.2-0.6-0.2-1c0-0.4,0.1-0.8,0.2-1.1c0.2-0.3,0.4-0.5,0.6-0.7
						c0.2-0.2,0.5-0.3,0.8-0.4c0.3-0.1,0.6-0.2,1-0.2c0.3,0,0.6-0.1,0.9-0.1c0.3,0,0.6-0.1,0.8-0.1c0.2-0.1,0.4-0.1,0.6-0.3
						s0.2-0.3,0.2-0.5c0-0.2,0-0.4-0.1-0.5c-0.1-0.1-0.2-0.2-0.3-0.3s-0.3-0.1-0.4-0.2c-0.2,0-0.3,0-0.5,0c-0.4,0-0.7,0.1-1,0.3
						c-0.2,0.2-0.4,0.5-0.4,0.9h-2.1C42.3,30.7,42.4,30.3,42.6,30z M46.8,33c-0.1,0-0.3,0.1-0.4,0.1c-0.2,0-0.3,0.1-0.5,0.1
						c-0.2,0-0.3,0-0.5,0.1c-0.2,0-0.3,0.1-0.5,0.1c-0.2,0-0.3,0.1-0.4,0.2c-0.1,0.1-0.2,0.2-0.3,0.3c-0.1,0.1-0.1,0.3-0.1,0.5
						c0,0.2,0,0.4,0.1,0.5c0.1,0.1,0.2,0.2,0.3,0.3c0.1,0.1,0.3,0.1,0.4,0.2c0.2,0,0.3,0,0.5,0c0.4,0,0.7-0.1,1-0.2
						c0.2-0.1,0.4-0.3,0.5-0.5c0.1-0.2,0.2-0.4,0.2-0.6c0-0.2,0-0.4,0-0.5v-0.8C47.1,32.9,46.9,33,46.8,33z"/>
					<path fill="#221F1F" d="M52.9,28.9v1.4h0c0.1-0.2,0.2-0.5,0.4-0.7c0.2-0.2,0.4-0.4,0.6-0.5c0.2-0.1,0.5-0.3,0.7-0.3
						s0.5-0.1,0.8-0.1c0.1,0,0.3,0,0.5,0.1v2c-0.1,0-0.2,0-0.4-0.1c-0.1,0-0.3,0-0.4,0c-0.4,0-0.7,0.1-1,0.2
						c-0.3,0.1-0.5,0.3-0.7,0.5c-0.2,0.2-0.3,0.5-0.4,0.8c-0.1,0.3-0.1,0.6-0.1,1v3.5h-2.1v-7.8H52.9z"/>
					<path fill="#221F1F" d="M61,28.9v1.4h-1.6v3.8c0,0.4,0.1,0.6,0.2,0.7C59.7,35,60,35,60.3,35c0.1,0,0.2,0,0.3,0
						c0.1,0,0.2,0,0.3,0v1.7c-0.2,0-0.4,0-0.6,0.1c-0.2,0-0.4,0-0.6,0c-0.3,0-0.6,0-0.9-0.1c-0.3,0-0.6-0.1-0.8-0.3
						s-0.4-0.3-0.5-0.6c-0.1-0.2-0.2-0.6-0.2-0.9v-4.6H56v-1.4h1.3v-2.3h2.1v2.3H61z"/>
					<path fill="#221F1F" d="M69.1,36.6v-6.8h-2.6v-1.6c0.4,0,0.7,0,1.1-0.1c0.3-0.1,0.7-0.2,0.9-0.3c0.3-0.2,0.5-0.4,0.7-0.7
						c0.2-0.3,0.3-0.6,0.4-1h1.7v10.5H69.1z"/>
					<path fill="#221F1F" d="M78.7,31.1c0.2-0.5,0.5-0.9,0.8-1.3c0.3-0.4,0.8-0.6,1.3-0.8c0.5-0.2,1-0.3,1.6-0.3
						c0.6,0,1.2,0.1,1.7,0.3c0.5,0.2,0.9,0.5,1.3,0.8c0.3,0.4,0.6,0.8,0.8,1.3c0.2,0.5,0.3,1.1,0.3,1.7s-0.1,1.2-0.3,1.7
						c-0.2,0.5-0.5,0.9-0.8,1.3c-0.3,0.4-0.8,0.6-1.3,0.8c-0.5,0.2-1,0.3-1.7,0.3c-0.6,0-1.2-0.1-1.6-0.3c-0.5-0.2-0.9-0.5-1.3-0.8
						c-0.3-0.4-0.6-0.8-0.8-1.3c-0.2-0.5-0.3-1.1-0.3-1.7S78.5,31.6,78.7,31.1z M80.7,33.7c0.1,0.3,0.2,0.6,0.3,0.8
						c0.1,0.2,0.3,0.4,0.6,0.6c0.2,0.1,0.5,0.2,0.9,0.2c0.4,0,0.7-0.1,0.9-0.2c0.2-0.1,0.4-0.3,0.6-0.6c0.1-0.2,0.2-0.5,0.3-0.8
						c0.1-0.3,0.1-0.6,0.1-0.9c0-0.3,0-0.6-0.1-0.9c-0.1-0.3-0.2-0.6-0.3-0.8c-0.1-0.2-0.3-0.4-0.6-0.6c-0.2-0.1-0.5-0.2-0.9-0.2
						c-0.4,0-0.7,0.1-0.9,0.2c-0.2,0.1-0.4,0.3-0.6,0.6c-0.1,0.2-0.2,0.5-0.3,0.8c-0.1,0.3-0.1,0.6-0.1,0.9
						C80.6,33.1,80.6,33.4,80.7,33.7z"/>
					<path fill="#221F1F" d="M87,30.3v-1.4h1.3v-0.6c0-0.7,0.2-1.3,0.6-1.7s1.1-0.7,1.9-0.7c0.2,0,0.4,0,0.6,0c0.2,0,0.4,0,0.6,0
						v1.6c-0.2,0-0.5,0-0.8,0c-0.3,0-0.5,0.1-0.6,0.2c-0.1,0.1-0.2,0.4-0.2,0.7v0.5h1.5v1.4h-1.5v6.3h-2.1v-6.3H87z"/>
					<path fill="#221F1F" d="M96.9,28.5c0.2-0.5,0.4-1,0.7-1.3c0.3-0.4,0.7-0.7,1.2-0.9c0.5-0.2,1-0.3,1.7-0.3
						c0.5,0,0.9,0.1,1.4,0.2c0.4,0.2,0.8,0.4,1.1,0.6c0.3,0.3,0.6,0.6,0.8,1c0.2,0.4,0.3,0.9,0.3,1.4c0,0.5-0.1,1-0.3,1.4
						s-0.4,0.7-0.7,1c-0.3,0.3-0.6,0.6-1,0.8s-0.7,0.5-1.1,0.7c-0.4,0.2-0.7,0.5-1,0.8c-0.3,0.3-0.6,0.6-0.9,0.9h5v1.8h-7.7
						c0-0.6,0.1-1.1,0.3-1.6s0.4-0.9,0.7-1.2c0.3-0.4,0.7-0.7,1.1-1s0.8-0.6,1.3-0.9c0.2-0.2,0.5-0.3,0.7-0.5s0.5-0.3,0.7-0.5
						c0.2-0.2,0.4-0.4,0.5-0.7c0.1-0.2,0.2-0.5,0.2-0.9c0-0.5-0.1-0.9-0.4-1.2c-0.3-0.3-0.7-0.4-1.1-0.4c-0.3,0-0.6,0.1-0.8,0.2
						c-0.2,0.1-0.4,0.3-0.5,0.6c-0.1,0.2-0.2,0.5-0.3,0.8c-0.1,0.3-0.1,0.6-0.1,0.8h-2C96.7,29.6,96.8,29,96.9,28.5z"/>
					<path fill="#221F1F" d="M114,31.6v1.8h-4.5v-1.8H114z"/>
					<path fill="#221F1F" d="M122.3,25.9v8.7h5.2v2H120V25.9H122.3z"/>
					<path fill="#221F1F" d="M128.9,30c0.2-0.3,0.5-0.6,0.8-0.8s0.7-0.3,1.1-0.4c0.4-0.1,0.9-0.1,1.3-0.1c0.4,0,0.8,0,1.2,0.1
						c0.4,0.1,0.8,0.2,1.1,0.3c0.3,0.2,0.6,0.4,0.8,0.7s0.3,0.7,0.3,1.1v4c0,0.3,0,0.7,0.1,1s0.1,0.6,0.2,0.7h-2.2
						c0-0.1-0.1-0.2-0.1-0.4c0-0.1,0-0.3-0.1-0.4c-0.3,0.4-0.7,0.6-1.2,0.7c-0.5,0.1-0.9,0.2-1.4,0.2c-0.4,0-0.7,0-1-0.1
						c-0.3-0.1-0.6-0.2-0.8-0.4c-0.2-0.2-0.4-0.4-0.6-0.7s-0.2-0.6-0.2-1c0-0.4,0.1-0.8,0.2-1.1c0.2-0.3,0.4-0.5,0.6-0.7
						c0.2-0.2,0.5-0.3,0.8-0.4c0.3-0.1,0.6-0.2,1-0.2c0.3,0,0.6-0.1,0.9-0.1c0.3,0,0.6-0.1,0.8-0.1c0.2-0.1,0.4-0.1,0.6-0.3
						s0.2-0.3,0.2-0.5c0-0.2,0-0.4-0.1-0.5c-0.1-0.1-0.2-0.2-0.3-0.3s-0.3-0.1-0.4-0.2c-0.2,0-0.3,0-0.5,0c-0.4,0-0.7,0.1-1,0.3
						c-0.2,0.2-0.4,0.5-0.4,0.9h-2.1C128.6,30.7,128.7,30.3,128.9,30z M133.1,33c-0.1,0-0.3,0.1-0.4,0.1c-0.2,0-0.3,0.1-0.5,0.1
						c-0.2,0-0.3,0-0.5,0.1c-0.2,0-0.3,0.1-0.5,0.1c-0.2,0-0.3,0.1-0.4,0.2c-0.1,0.1-0.2,0.2-0.3,0.3c-0.1,0.1-0.1,0.3-0.1,0.5
						c0,0.2,0,0.4,0.1,0.5c0.1,0.1,0.2,0.2,0.3,0.3c0.1,0.1,0.3,0.1,0.4,0.2c0.2,0,0.3,0,0.5,0c0.4,0,0.7-0.1,1-0.2
						c0.2-0.1,0.4-0.3,0.5-0.5c0.1-0.2,0.2-0.4,0.2-0.6c0-0.2,0-0.4,0-0.5v-0.8C133.4,32.9,133.3,33,133.1,33z"/>
					<path fill="#221F1F" d="M139,34.7c0.1,0.2,0.2,0.3,0.4,0.4c0.1,0.1,0.3,0.2,0.5,0.2c0.2,0,0.4,0.1,0.6,0.1c0.1,0,0.3,0,0.5-0.1
						s0.3-0.1,0.4-0.2s0.2-0.2,0.3-0.3s0.1-0.3,0.1-0.5c0-0.3-0.2-0.6-0.6-0.7s-1-0.3-1.8-0.5c-0.3-0.1-0.6-0.2-0.9-0.2
						s-0.6-0.2-0.8-0.4c-0.2-0.2-0.4-0.3-0.6-0.6c-0.1-0.2-0.2-0.5-0.2-0.9c0-0.5,0.1-0.9,0.3-1.2c0.2-0.3,0.5-0.6,0.8-0.8
						c0.3-0.2,0.7-0.3,1.1-0.4s0.8-0.1,1.2-0.1c0.4,0,0.8,0,1.2,0.1c0.4,0.1,0.7,0.2,1.1,0.4c0.3,0.2,0.6,0.4,0.8,0.8
						c0.2,0.3,0.3,0.7,0.4,1.2h-2c0-0.4-0.2-0.7-0.5-0.8c-0.3-0.1-0.6-0.2-1-0.2c-0.1,0-0.2,0-0.4,0s-0.3,0-0.4,0.1
						c-0.1,0-0.2,0.1-0.3,0.2c-0.1,0.1-0.1,0.2-0.1,0.4c0,0.2,0.1,0.3,0.2,0.5c0.1,0.1,0.3,0.2,0.5,0.3c0.2,0.1,0.5,0.1,0.8,0.2
						c0.3,0.1,0.6,0.1,0.9,0.2c0.3,0.1,0.6,0.2,0.9,0.3c0.3,0.1,0.6,0.2,0.8,0.4c0.2,0.2,0.4,0.4,0.6,0.6s0.2,0.5,0.2,0.9
						c0,0.5-0.1,0.9-0.3,1.3c-0.2,0.3-0.5,0.6-0.8,0.8c-0.3,0.2-0.7,0.4-1.1,0.4s-0.9,0.1-1.3,0.1c-0.4,0-0.9,0-1.3-0.1
						c-0.4-0.1-0.8-0.2-1.1-0.4c-0.3-0.2-0.6-0.5-0.8-0.8s-0.3-0.8-0.4-1.3h2C138.9,34.3,138.9,34.5,139,34.7z"/>
					<path fill="#221F1F" d="M149.5,28.9v1.4H148v3.8c0,0.4,0.1,0.6,0.2,0.7c0.1,0.1,0.4,0.2,0.7,0.2c0.1,0,0.2,0,0.3,0
						c0.1,0,0.2,0,0.3,0v1.7c-0.2,0-0.4,0-0.6,0.1c-0.2,0-0.4,0-0.6,0c-0.3,0-0.6,0-0.9-0.1c-0.3,0-0.6-0.1-0.8-0.3
						s-0.4-0.3-0.5-0.6c-0.1-0.2-0.2-0.6-0.2-0.9v-4.6h-1.3v-1.4h1.3v-2.3h2.1v2.3H149.5z"/>
					<path fill="#221F1F" d="M158.4,30.3c-0.3,0-0.6,0.1-0.9,0.2c-0.2,0.2-0.4,0.4-0.6,0.6s-0.2,0.5-0.3,0.8
						c-0.1,0.3-0.1,0.6-0.1,0.9c0,0.3,0,0.6,0.1,0.9c0.1,0.3,0.2,0.6,0.3,0.8c0.1,0.2,0.3,0.4,0.5,0.6c0.2,0.2,0.5,0.2,0.8,0.2
						c0.5,0,0.9-0.1,1.2-0.4c0.3-0.3,0.4-0.7,0.5-1.1h2.1c-0.1,1-0.5,1.8-1.2,2.4s-1.5,0.8-2.5,0.8c-0.6,0-1.1-0.1-1.6-0.3
						s-0.9-0.5-1.2-0.8c-0.3-0.3-0.6-0.8-0.8-1.3c-0.2-0.5-0.3-1-0.3-1.6c0-0.6,0.1-1.2,0.3-1.7c0.2-0.5,0.4-1,0.8-1.3
						c0.3-0.4,0.8-0.7,1.2-0.9s1-0.3,1.7-0.3c0.5,0,0.9,0.1,1.3,0.2s0.8,0.3,1.1,0.5c0.3,0.2,0.6,0.5,0.8,0.9
						c0.2,0.4,0.3,0.8,0.4,1.3H160C159.9,30.7,159.3,30.3,158.4,30.3z"/>
					<path fill="#221F1F" d="M165.4,25.9v4h0c0.3-0.5,0.6-0.8,1-1c0.4-0.2,0.8-0.3,1.2-0.3c0.6,0,1,0.1,1.4,0.2
						c0.4,0.2,0.7,0.4,0.9,0.6c0.2,0.3,0.4,0.6,0.4,1c0.1,0.4,0.1,0.8,0.1,1.3v4.8h-2.1v-4.4c0-0.6-0.1-1.1-0.3-1.4
						s-0.6-0.5-1.1-0.5c-0.6,0-1,0.2-1.3,0.5s-0.4,0.9-0.4,1.7v4.1h-2.1V25.9H165.4z"/>
					<path fill="#221F1F" d="M172.5,30c0.2-0.3,0.5-0.6,0.8-0.8s0.7-0.3,1.1-0.4c0.4-0.1,0.9-0.1,1.3-0.1c0.4,0,0.8,0,1.2,0.1
						c0.4,0.1,0.8,0.2,1.1,0.3c0.3,0.2,0.6,0.4,0.8,0.7s0.3,0.7,0.3,1.1v4c0,0.3,0,0.7,0.1,1s0.1,0.6,0.2,0.7h-2.2
						c0-0.1-0.1-0.2-0.1-0.4c0-0.1,0-0.3-0.1-0.4c-0.3,0.4-0.7,0.6-1.2,0.7c-0.5,0.1-0.9,0.2-1.4,0.2c-0.4,0-0.7,0-1-0.1
						c-0.3-0.1-0.6-0.2-0.8-0.4c-0.2-0.2-0.4-0.4-0.6-0.7s-0.2-0.6-0.2-1c0-0.4,0.1-0.8,0.2-1.1c0.2-0.3,0.4-0.5,0.6-0.7
						c0.2-0.2,0.5-0.3,0.8-0.4c0.3-0.1,0.6-0.2,1-0.2c0.3,0,0.6-0.1,0.9-0.1c0.3,0,0.6-0.1,0.8-0.1c0.2-0.1,0.4-0.1,0.6-0.3
						s0.2-0.3,0.2-0.5c0-0.2,0-0.4-0.1-0.5c-0.1-0.1-0.2-0.2-0.3-0.3s-0.3-0.1-0.4-0.2c-0.2,0-0.3,0-0.5,0c-0.4,0-0.7,0.1-1,0.3
						c-0.2,0.2-0.4,0.5-0.4,0.9h-2.1C172.1,30.7,172.3,30.3,172.5,30z M176.7,33c-0.1,0-0.3,0.1-0.4,0.1c-0.2,0-0.3,0.1-0.5,0.1
						c-0.2,0-0.3,0-0.5,0.1c-0.2,0-0.3,0.1-0.5,0.1c-0.2,0-0.3,0.1-0.4,0.2c-0.1,0.1-0.2,0.2-0.3,0.3c-0.1,0.1-0.1,0.3-0.1,0.5
						c0,0.2,0,0.4,0.1,0.5c0.1,0.1,0.2,0.2,0.3,0.3c0.1,0.1,0.3,0.1,0.4,0.2c0.2,0,0.3,0,0.5,0c0.4,0,0.7-0.1,1-0.2
						c0.2-0.1,0.4-0.3,0.5-0.5c0.1-0.2,0.2-0.4,0.2-0.6c0-0.2,0-0.4,0-0.5v-0.8C176.9,32.9,176.8,33,176.7,33z"/>
					<path fill="#221F1F" d="M182.8,28.9v1.1h0c0.3-0.5,0.6-0.8,1-1c0.4-0.2,0.9-0.3,1.3-0.3c0.6,0,1,0.1,1.4,0.2
						c0.4,0.2,0.7,0.4,0.9,0.6c0.2,0.3,0.4,0.6,0.4,1c0.1,0.4,0.1,0.8,0.1,1.3v4.8h-2.1v-4.4c0-0.6-0.1-1.1-0.3-1.4
						s-0.6-0.5-1.1-0.5c-0.6,0-1,0.2-1.3,0.5s-0.4,0.9-0.4,1.7v4.1h-2.1v-7.8H182.8z"/>
					<path fill="#221F1F" d="M193.4,30.3c-0.3,0-0.6,0.1-0.9,0.2c-0.2,0.2-0.4,0.4-0.6,0.6s-0.2,0.5-0.3,0.8
						c-0.1,0.3-0.1,0.6-0.1,0.9c0,0.3,0,0.6,0.1,0.9c0.1,0.3,0.2,0.6,0.3,0.8c0.1,0.2,0.3,0.4,0.5,0.6c0.2,0.2,0.5,0.2,0.8,0.2
						c0.5,0,0.9-0.1,1.2-0.4c0.3-0.3,0.4-0.7,0.5-1.1h2.1c-0.1,1-0.5,1.8-1.2,2.4s-1.5,0.8-2.5,0.8c-0.6,0-1.1-0.1-1.6-0.3
						s-0.9-0.5-1.2-0.8c-0.3-0.3-0.6-0.8-0.8-1.3c-0.2-0.5-0.3-1-0.3-1.6c0-0.6,0.1-1.2,0.3-1.7c0.2-0.5,0.4-1,0.8-1.3
						c0.3-0.4,0.8-0.7,1.2-0.9s1-0.3,1.7-0.3c0.5,0,0.9,0.1,1.3,0.2s0.8,0.3,1.1,0.5c0.3,0.2,0.6,0.5,0.8,0.9
						c0.2,0.4,0.3,0.8,0.4,1.3H195C194.8,30.7,194.3,30.3,193.4,30.3z"/>
					<path fill="#221F1F" d="M200.6,34.8c0.3,0.3,0.8,0.5,1.4,0.5c0.4,0,0.8-0.1,1.1-0.3c0.3-0.2,0.5-0.4,0.6-0.7h1.9
						c-0.3,0.9-0.8,1.6-1.4,2c-0.6,0.4-1.4,0.6-2.2,0.6c-0.6,0-1.2-0.1-1.6-0.3c-0.5-0.2-0.9-0.5-1.2-0.8c-0.3-0.4-0.6-0.8-0.8-1.3
						c-0.2-0.5-0.3-1-0.3-1.7c0-0.6,0.1-1.1,0.3-1.6c0.2-0.5,0.5-0.9,0.8-1.3s0.8-0.7,1.3-0.9s1-0.3,1.6-0.3c0.7,0,1.2,0.1,1.7,0.4
						c0.5,0.3,0.9,0.6,1.2,1s0.5,0.9,0.7,1.5s0.2,1.1,0.1,1.7H200C200.1,33.9,200.2,34.4,200.6,34.8z M203,30.7
						c-0.3-0.3-0.6-0.4-1.2-0.4c-0.3,0-0.6,0.1-0.8,0.2s-0.4,0.3-0.5,0.4s-0.2,0.3-0.3,0.5c-0.1,0.2-0.1,0.4-0.1,0.5h3.5
						C203.4,31.4,203.2,31,203,30.7z"/>
					<path fill="#221F1F" d="M209.3,34.3v2.3H207v-2.3H209.3z"/>
					<path fill="#221F1F" d="M213.5,34.3v2.3h-2.4v-2.3H213.5z"/>
					<path fill="#221F1F" d="M217.7,34.3v2.3h-2.4v-2.3H217.7z"/>
					<path fill="#808284" d="M54.7,47.6v1.1h-5.2v3.2h4.6V53h-4.6v4.6h-1.3v-10H54.7z"/>
					<path fill="#808284" d="M61.5,57.8c-0.3,0-0.6-0.1-0.7-0.3c-0.2-0.2-0.3-0.5-0.3-0.8c-0.3,0.4-0.7,0.7-1.1,0.8
						c-0.4,0.2-0.9,0.3-1.4,0.3c-0.3,0-0.6,0-0.9-0.1s-0.5-0.2-0.8-0.3c-0.2-0.2-0.4-0.4-0.5-0.6s-0.2-0.6-0.2-0.9
						c0-0.4,0.1-0.7,0.2-1c0.1-0.3,0.3-0.5,0.6-0.6s0.5-0.3,0.8-0.4s0.6-0.2,0.9-0.2c0.3-0.1,0.6-0.1,0.9-0.1c0.3,0,0.6-0.1,0.8-0.1
						c0.2-0.1,0.4-0.1,0.5-0.3c0.1-0.1,0.2-0.3,0.2-0.5c0-0.3,0-0.5-0.1-0.6c-0.1-0.2-0.2-0.3-0.4-0.4c-0.2-0.1-0.3-0.1-0.5-0.2
						c-0.2,0-0.4,0-0.6,0c-0.5,0-0.9,0.1-1.3,0.3c-0.3,0.2-0.5,0.6-0.5,1.1h-1.2c0-0.4,0.1-0.8,0.3-1.1c0.2-0.3,0.4-0.6,0.7-0.7
						c0.3-0.2,0.6-0.3,1-0.4c0.4-0.1,0.7-0.1,1.1-0.1c0.3,0,0.7,0,1,0.1c0.3,0,0.6,0.1,0.9,0.3s0.5,0.3,0.6,0.6
						c0.2,0.3,0.2,0.6,0.2,1v3.7c0,0.3,0,0.5,0,0.6s0.1,0.2,0.3,0.2c0.1,0,0.2,0,0.4-0.1v0.9C62.2,57.7,61.9,57.8,61.5,57.8z
						 M59.9,54.1c-0.2,0.1-0.5,0.1-0.8,0.1c-0.3,0-0.5,0.1-0.8,0.1c-0.3,0-0.5,0.1-0.7,0.2c-0.2,0.1-0.4,0.2-0.5,0.4
						c-0.1,0.2-0.2,0.4-0.2,0.7c0,0.2,0,0.4,0.1,0.5c0.1,0.1,0.2,0.2,0.3,0.3s0.3,0.1,0.4,0.2c0.2,0,0.3,0.1,0.5,0.1
						c0.4,0,0.7-0.1,1-0.2c0.3-0.1,0.5-0.2,0.7-0.4c0.2-0.2,0.3-0.3,0.4-0.5c0.1-0.2,0.1-0.4,0.1-0.5v-1.2
						C60.3,54,60.1,54.1,59.9,54.1z"/>
					<path fill="#808284" d="M64.8,47.6v10h-1.2v-10H64.8z"/>
					<path fill="#808284" d="M67.9,47.6v10h-1.2v-10H67.9z"/>
					<path fill="#808284" d="M69.8,49.1v-1.5H71v1.5H69.8z M71,50.4v7.2h-1.2v-7.2H71z"/>
					<path fill="#808284" d="M73.9,50.4v1.1h0c0.5-0.9,1.3-1.3,2.3-1.3c0.5,0,0.9,0.1,1.2,0.2c0.3,0.1,0.6,0.3,0.8,0.5
						c0.2,0.2,0.3,0.5,0.4,0.8c0.1,0.3,0.1,0.7,0.1,1.1v4.8h-1.2v-4.9c0-0.4-0.1-0.8-0.4-1.1s-0.6-0.4-1.1-0.4
						c-0.4,0-0.7,0.1-0.9,0.2c-0.3,0.1-0.5,0.3-0.7,0.5c-0.2,0.2-0.3,0.4-0.4,0.7C74,52.9,74,53.2,74,53.5v4.1h-1.2v-7.2H73.9z"/>
					<path fill="#808284" d="M86,59.7c-0.5,0.6-1.4,0.9-2.5,0.9c-0.3,0-0.7,0-1-0.1c-0.3-0.1-0.7-0.2-1-0.4s-0.5-0.4-0.7-0.7
						s-0.3-0.6-0.3-1h1.2c0,0.2,0.1,0.4,0.2,0.5s0.3,0.3,0.5,0.4c0.2,0.1,0.4,0.2,0.6,0.2c0.2,0,0.4,0.1,0.6,0.1
						c0.4,0,0.7-0.1,1-0.2c0.3-0.1,0.5-0.3,0.7-0.6s0.3-0.5,0.4-0.9s0.1-0.7,0.1-1.1v-0.5h0c-0.2,0.4-0.5,0.8-0.9,1
						c-0.4,0.2-0.9,0.3-1.3,0.3c-0.5,0-1-0.1-1.4-0.3c-0.4-0.2-0.7-0.5-1-0.8s-0.5-0.7-0.6-1.2s-0.2-0.9-0.2-1.4
						c0-0.4,0.1-0.9,0.2-1.3c0.1-0.5,0.3-0.9,0.6-1.2c0.3-0.4,0.6-0.7,1-0.9s1-0.4,1.6-0.4c0.5,0,0.9,0.1,1.3,0.3
						c0.4,0.2,0.7,0.5,0.9,0.9h0v-1h1.1V57C86.8,58.2,86.6,59.1,86,59.7z M84.5,56.4c0.3-0.2,0.5-0.4,0.7-0.6
						c0.2-0.3,0.3-0.6,0.4-0.9c0.1-0.3,0.1-0.7,0.1-1c0-0.3,0-0.6-0.1-0.9c-0.1-0.3-0.2-0.6-0.4-0.8c-0.2-0.2-0.4-0.4-0.6-0.6
						s-0.6-0.2-1-0.2c-0.4,0-0.7,0.1-1,0.2s-0.5,0.3-0.7,0.6c-0.2,0.2-0.3,0.5-0.4,0.8s-0.1,0.6-0.1,1c0,0.3,0,0.7,0.1,1
						c0.1,0.3,0.2,0.6,0.3,0.9c0.2,0.3,0.4,0.5,0.6,0.6c0.3,0.2,0.6,0.2,1,0.2S84.2,56.6,84.5,56.4z"/>
					<path fill="#808284" d="M96.9,47.6l3.9,10h-1.5l-1.1-3H94l-1.1,3h-1.4l3.9-10H96.9z M97.8,53.5l-1.7-4.7h0l-1.7,4.7H97.8z"/>
					<path fill="#808284" d="M102.7,50.4v1.1h0c0.5-0.9,1.3-1.3,2.3-1.3c0.5,0,0.9,0.1,1.2,0.2c0.3,0.1,0.6,0.3,0.8,0.5
						c0.2,0.2,0.3,0.5,0.4,0.8c0.1,0.3,0.1,0.7,0.1,1.1v4.8h-1.2v-4.9c0-0.4-0.1-0.8-0.4-1.1s-0.6-0.4-1.1-0.4
						c-0.4,0-0.7,0.1-0.9,0.2c-0.3,0.1-0.5,0.3-0.7,0.5c-0.2,0.2-0.3,0.4-0.4,0.7c-0.1,0.3-0.1,0.6-0.1,0.9v4.1h-1.2v-7.2H102.7z"/>
					<path fill="#808284" d="M114.8,59.7c-0.5,0.6-1.4,0.9-2.5,0.9c-0.3,0-0.7,0-1-0.1c-0.3-0.1-0.7-0.2-1-0.4s-0.5-0.4-0.7-0.7
						s-0.3-0.6-0.3-1h1.2c0,0.2,0.1,0.4,0.2,0.5s0.3,0.3,0.5,0.4c0.2,0.1,0.4,0.2,0.6,0.2c0.2,0,0.4,0.1,0.6,0.1
						c0.4,0,0.7-0.1,1-0.2c0.3-0.1,0.5-0.3,0.7-0.6s0.3-0.5,0.4-0.9s0.1-0.7,0.1-1.1v-0.5h0c-0.2,0.4-0.5,0.8-0.9,1
						c-0.4,0.2-0.9,0.3-1.3,0.3c-0.5,0-1-0.1-1.4-0.3c-0.4-0.2-0.7-0.5-1-0.8s-0.5-0.7-0.6-1.2S109,54.5,109,54
						c0-0.4,0.1-0.9,0.2-1.3c0.1-0.5,0.3-0.9,0.6-1.2c0.3-0.4,0.6-0.7,1-0.9s1-0.4,1.6-0.4c0.5,0,0.9,0.1,1.3,0.3
						c0.4,0.2,0.7,0.5,0.9,0.9h0v-1h1.1V57C115.6,58.2,115.3,59.1,114.8,59.7z M113.2,56.4c0.3-0.2,0.5-0.4,0.7-0.6
						c0.2-0.3,0.3-0.6,0.4-0.9c0.1-0.3,0.1-0.7,0.1-1c0-0.3,0-0.6-0.1-0.9c-0.1-0.3-0.2-0.6-0.4-0.8c-0.2-0.2-0.4-0.4-0.6-0.6
						s-0.6-0.2-1-0.2c-0.4,0-0.7,0.1-1,0.2s-0.5,0.3-0.7,0.6c-0.2,0.2-0.3,0.5-0.4,0.8s-0.1,0.6-0.1,1c0,0.3,0,0.7,0.1,1
						c0.1,0.3,0.2,0.6,0.3,0.9c0.2,0.3,0.4,0.5,0.6,0.6c0.3,0.2,0.6,0.2,1,0.2S113,56.6,113.2,56.4z"/>
					<path fill="#808284" d="M122.5,57.2c-0.5,0.4-1.2,0.6-2,0.6c-0.6,0-1.1-0.1-1.5-0.3c-0.4-0.2-0.8-0.4-1.1-0.8s-0.5-0.7-0.7-1.2
						s-0.2-1-0.2-1.5c0-0.6,0.1-1.1,0.3-1.5c0.2-0.5,0.4-0.9,0.7-1.2c0.3-0.3,0.7-0.6,1.1-0.8s0.9-0.3,1.4-0.3
						c0.6,0,1.2,0.1,1.6,0.4c0.4,0.3,0.8,0.6,1,1c0.3,0.4,0.4,0.9,0.5,1.3c0.1,0.5,0.1,0.9,0.1,1.4h-5.4c0,0.3,0,0.6,0.1,0.9
						c0.1,0.3,0.2,0.5,0.4,0.8c0.2,0.2,0.4,0.4,0.7,0.5s0.6,0.2,1,0.2c0.5,0,0.9-0.1,1.2-0.4c0.3-0.2,0.5-0.6,0.6-1.1h1.2
						C123.4,56.1,123,56.7,122.5,57.2z M122.2,52.5c-0.1-0.3-0.3-0.5-0.4-0.7c-0.2-0.2-0.4-0.3-0.6-0.4c-0.2-0.1-0.5-0.2-0.8-0.2
						c-0.3,0-0.6,0.1-0.8,0.2c-0.2,0.1-0.5,0.3-0.6,0.4s-0.3,0.4-0.4,0.7c-0.1,0.2-0.2,0.5-0.2,0.8h4.2
						C122.4,53,122.3,52.8,122.2,52.5z"/>
					<path fill="#808284" d="M126.1,47.6v10h-1.2v-10H126.1z"/>
					<path fill="#808284" d="M128.9,56c0.1,0.2,0.3,0.3,0.4,0.4s0.4,0.2,0.6,0.2s0.5,0.1,0.7,0.1c0.2,0,0.4,0,0.6,0
						c0.2,0,0.4-0.1,0.6-0.2c0.2-0.1,0.3-0.2,0.4-0.3c0.1-0.1,0.2-0.3,0.2-0.6c0-0.3-0.1-0.5-0.3-0.7c-0.2-0.2-0.5-0.3-0.9-0.4
						s-0.7-0.2-1.1-0.3c-0.4-0.1-0.8-0.2-1.1-0.3c-0.3-0.1-0.6-0.3-0.9-0.6c-0.2-0.3-0.3-0.6-0.3-1.1c0-0.4,0.1-0.7,0.2-0.9
						c0.2-0.3,0.4-0.5,0.6-0.6c0.3-0.2,0.5-0.3,0.9-0.4c0.3-0.1,0.6-0.1,1-0.1c0.4,0,0.8,0,1.1,0.1c0.3,0.1,0.7,0.2,0.9,0.4
						c0.3,0.2,0.5,0.4,0.6,0.7c0.2,0.3,0.3,0.7,0.3,1.1h-1.2c0-0.2-0.1-0.4-0.2-0.6c-0.1-0.2-0.2-0.3-0.4-0.4
						c-0.2-0.1-0.3-0.2-0.5-0.2c-0.2,0-0.4-0.1-0.6-0.1c-0.2,0-0.4,0-0.5,0c-0.2,0-0.3,0.1-0.5,0.1c-0.1,0.1-0.3,0.2-0.4,0.3
						c-0.1,0.1-0.1,0.3-0.1,0.5c0,0.2,0.1,0.4,0.2,0.5s0.3,0.2,0.6,0.3s0.5,0.2,0.8,0.2c0.3,0.1,0.6,0.1,0.8,0.2
						c0.3,0.1,0.6,0.1,0.9,0.2c0.3,0.1,0.5,0.2,0.8,0.4c0.2,0.2,0.4,0.3,0.5,0.6c0.1,0.2,0.2,0.5,0.2,0.9c0,0.4-0.1,0.8-0.3,1.1
						c-0.2,0.3-0.4,0.5-0.7,0.7c-0.3,0.2-0.6,0.3-1,0.4s-0.7,0.1-1.1,0.1c-0.4,0-0.8,0-1.1-0.1c-0.4-0.1-0.7-0.2-1-0.4
						c-0.3-0.2-0.5-0.4-0.7-0.8s-0.3-0.7-0.3-1.1h1.2C128.7,55.6,128.8,55.8,128.9,56z"/>
					<path fill="#808284" d="M140,46.6v14h-1v-14H140z"/>
					<path fill="#808284" d="M145.7,49.8c0.1-0.4,0.3-0.8,0.6-1.1c0.3-0.3,0.6-0.6,1-0.7c0.4-0.2,0.9-0.3,1.4-0.3
						c0.4,0,0.8,0.1,1.2,0.2c0.4,0.1,0.7,0.3,1,0.5c0.3,0.2,0.5,0.5,0.7,0.9s0.2,0.8,0.2,1.2c0,0.4-0.1,0.8-0.2,1.2
						c-0.1,0.3-0.3,0.6-0.5,0.9c-0.2,0.3-0.5,0.5-0.8,0.7s-0.6,0.4-0.9,0.6c-0.3,0.2-0.6,0.4-0.9,0.6c-0.3,0.2-0.6,0.4-0.8,0.6
						c-0.3,0.2-0.5,0.4-0.7,0.7c-0.2,0.2-0.3,0.5-0.4,0.8h5.1v1h-6.5c0-0.6,0.2-1.1,0.3-1.5s0.4-0.8,0.6-1.1
						c0.3-0.3,0.5-0.6,0.9-0.8c0.3-0.2,0.6-0.5,1-0.7c0.4-0.3,0.8-0.5,1.1-0.7c0.3-0.2,0.6-0.4,0.8-0.7c0.2-0.2,0.4-0.5,0.5-0.7
						c0.1-0.3,0.2-0.6,0.2-0.9c0-0.3-0.1-0.5-0.2-0.7c-0.1-0.2-0.2-0.4-0.4-0.6c-0.2-0.2-0.4-0.3-0.6-0.4c-0.2-0.1-0.5-0.1-0.7-0.1
						c-0.3,0-0.6,0.1-0.9,0.2s-0.5,0.3-0.6,0.6s-0.3,0.5-0.3,0.8c-0.1,0.3-0.1,0.6-0.1,0.9h-1.2C145.5,50.7,145.6,50.2,145.7,49.8z"
						/>
					<path fill="#808284" d="M158.7,47.6v3.8h0c0.1-0.2,0.2-0.4,0.4-0.6c0.2-0.2,0.4-0.3,0.6-0.4s0.4-0.2,0.7-0.2s0.5-0.1,0.7-0.1
						c0.5,0,0.9,0.1,1.2,0.2c0.3,0.1,0.6,0.3,0.8,0.5c0.2,0.2,0.3,0.5,0.4,0.8c0.1,0.3,0.1,0.7,0.1,1.1v4.8h-1.2v-4.9
						c0-0.4-0.1-0.8-0.4-1.1s-0.6-0.4-1.1-0.4c-0.4,0-0.7,0.1-0.9,0.2c-0.3,0.1-0.5,0.3-0.7,0.5c-0.2,0.2-0.3,0.4-0.4,0.7
						c-0.1,0.3-0.1,0.6-0.1,0.9v4.1h-1.2v-10H158.7z"/>
					<path fill="#808284" d="M165.1,52.5c0.1-0.5,0.4-0.9,0.7-1.2c0.3-0.3,0.7-0.6,1.1-0.8c0.4-0.2,0.9-0.3,1.5-0.3
						c0.6,0,1.1,0.1,1.5,0.3c0.4,0.2,0.8,0.5,1.1,0.8c0.3,0.3,0.5,0.7,0.7,1.2c0.1,0.5,0.2,1,0.2,1.5c0,0.5-0.1,1-0.2,1.5
						s-0.4,0.9-0.7,1.2c-0.3,0.3-0.7,0.6-1.1,0.8c-0.4,0.2-0.9,0.3-1.5,0.3c-0.6,0-1.1-0.1-1.5-0.3s-0.8-0.5-1.1-0.8
						c-0.3-0.3-0.5-0.7-0.7-1.2c-0.1-0.5-0.2-1-0.2-1.5C164.9,53.5,165,53,165.1,52.5z M166.3,55.2c0.1,0.3,0.3,0.6,0.5,0.9
						s0.4,0.4,0.7,0.5c0.3,0.1,0.6,0.2,0.9,0.2s0.6-0.1,0.9-0.2c0.3-0.1,0.5-0.3,0.7-0.5s0.4-0.5,0.5-0.9c0.1-0.3,0.2-0.7,0.2-1.2
						c0-0.4-0.1-0.8-0.2-1.2c-0.1-0.3-0.3-0.6-0.5-0.9s-0.4-0.4-0.7-0.5c-0.3-0.1-0.6-0.2-0.9-0.2s-0.6,0.1-0.9,0.2
						c-0.3,0.1-0.5,0.3-0.7,0.5s-0.4,0.5-0.5,0.9c-0.1,0.3-0.2,0.7-0.2,1.2C166.2,54.4,166.2,54.8,166.3,55.2z"/>
					<path fill="#808284" d="M178.2,57.6v-1.1h0c-0.3,0.4-0.6,0.8-1,1s-0.9,0.3-1.4,0.3c-0.5,0-0.9-0.1-1.2-0.2
						c-0.3-0.1-0.6-0.3-0.8-0.5c-0.2-0.2-0.3-0.5-0.4-0.8c-0.1-0.3-0.1-0.7-0.1-1.1v-4.8h1.2v4.9c0,0.4,0.1,0.8,0.4,1.1
						c0.3,0.3,0.6,0.4,1.1,0.4c0.4,0,0.7-0.1,0.9-0.2c0.3-0.1,0.5-0.3,0.7-0.5c0.2-0.2,0.3-0.4,0.4-0.7s0.1-0.6,0.1-0.9v-4.1h1.2
						v7.2H178.2z"/>
					<path fill="#808284" d="M182.2,50.4v1.5h0c0.3-0.6,0.6-1,1.1-1.3c0.4-0.3,1-0.4,1.6-0.4v1.3c-0.5,0-0.9,0.1-1.2,0.2
						c-0.3,0.1-0.6,0.3-0.8,0.6s-0.4,0.6-0.4,0.9c-0.1,0.4-0.1,0.8-0.1,1.2v3.2h-1.2v-7.2H182.2z"/>
					<path fill="#808284" d="M186.7,56c0.1,0.2,0.3,0.3,0.4,0.4s0.4,0.2,0.6,0.2s0.5,0.1,0.7,0.1c0.2,0,0.4,0,0.6,0
						c0.2,0,0.4-0.1,0.6-0.2c0.2-0.1,0.3-0.2,0.4-0.3c0.1-0.1,0.2-0.3,0.2-0.6c0-0.3-0.1-0.5-0.3-0.7c-0.2-0.2-0.5-0.3-0.9-0.4
						s-0.7-0.2-1.1-0.3c-0.4-0.1-0.8-0.2-1.1-0.3c-0.3-0.1-0.6-0.3-0.9-0.6c-0.2-0.3-0.3-0.6-0.3-1.1c0-0.4,0.1-0.7,0.2-0.9
						c0.2-0.3,0.4-0.5,0.6-0.6c0.3-0.2,0.5-0.3,0.9-0.4c0.3-0.1,0.6-0.1,1-0.1c0.4,0,0.8,0,1.1,0.1c0.3,0.1,0.7,0.2,0.9,0.4
						c0.3,0.2,0.5,0.4,0.6,0.7c0.2,0.3,0.3,0.7,0.3,1.1h-1.2c0-0.2-0.1-0.4-0.2-0.6c-0.1-0.2-0.2-0.3-0.4-0.4
						c-0.2-0.1-0.3-0.2-0.5-0.2c-0.2,0-0.4-0.1-0.6-0.1c-0.2,0-0.4,0-0.5,0c-0.2,0-0.3,0.1-0.5,0.1c-0.1,0.1-0.3,0.2-0.4,0.3
						c-0.1,0.1-0.1,0.3-0.1,0.5c0,0.2,0.1,0.4,0.2,0.5s0.3,0.2,0.6,0.3s0.5,0.2,0.8,0.2c0.3,0.1,0.6,0.1,0.8,0.2
						c0.3,0.1,0.6,0.1,0.9,0.2c0.3,0.1,0.5,0.2,0.8,0.4c0.2,0.2,0.4,0.3,0.5,0.6c0.1,0.2,0.2,0.5,0.2,0.9c0,0.4-0.1,0.8-0.3,1.1
						c-0.2,0.3-0.4,0.5-0.7,0.7c-0.3,0.2-0.6,0.3-1,0.4s-0.7,0.1-1.1,0.1c-0.4,0-0.8,0-1.1-0.1c-0.4-0.1-0.7-0.2-1-0.4
						c-0.3-0.2-0.5-0.4-0.7-0.8s-0.3-0.7-0.3-1.1h1.2C186.5,55.6,186.5,55.8,186.7,56z"/>
					<path fill="#808284" d="M202.2,57.8c-0.3,0-0.6-0.1-0.7-0.3c-0.2-0.2-0.3-0.5-0.3-0.8c-0.3,0.4-0.7,0.7-1.1,0.8
						c-0.4,0.2-0.9,0.3-1.4,0.3c-0.3,0-0.6,0-0.9-0.1s-0.5-0.2-0.8-0.3c-0.2-0.2-0.4-0.4-0.5-0.6s-0.2-0.6-0.2-0.9
						c0-0.4,0.1-0.7,0.2-1c0.1-0.3,0.3-0.5,0.6-0.6s0.5-0.3,0.8-0.4s0.6-0.2,0.9-0.2c0.3-0.1,0.6-0.1,0.9-0.1c0.3,0,0.6-0.1,0.8-0.1
						c0.2-0.1,0.4-0.1,0.5-0.3c0.1-0.1,0.2-0.3,0.2-0.5c0-0.3,0-0.5-0.1-0.6c-0.1-0.2-0.2-0.3-0.4-0.4c-0.2-0.1-0.3-0.1-0.5-0.2
						c-0.2,0-0.4,0-0.6,0c-0.5,0-0.9,0.1-1.3,0.3c-0.3,0.2-0.5,0.6-0.5,1.1h-1.2c0-0.4,0.1-0.8,0.3-1.1c0.2-0.3,0.4-0.6,0.7-0.7
						c0.3-0.2,0.6-0.3,1-0.4c0.4-0.1,0.7-0.1,1.1-0.1c0.3,0,0.7,0,1,0.1c0.3,0,0.6,0.1,0.9,0.3s0.5,0.3,0.6,0.6
						c0.2,0.3,0.2,0.6,0.2,1v3.7c0,0.3,0,0.5,0,0.6s0.1,0.2,0.3,0.2c0.1,0,0.2,0,0.4-0.1v0.9C202.8,57.7,202.5,57.8,202.2,57.8z
						 M200.5,54.1c-0.2,0.1-0.5,0.1-0.8,0.1c-0.3,0-0.5,0.1-0.8,0.1c-0.3,0-0.5,0.1-0.7,0.2c-0.2,0.1-0.4,0.2-0.5,0.4
						c-0.1,0.2-0.2,0.4-0.2,0.7c0,0.2,0,0.4,0.1,0.5c0.1,0.1,0.2,0.2,0.3,0.3s0.3,0.1,0.4,0.2c0.2,0,0.3,0.1,0.5,0.1
						c0.4,0,0.7-0.1,1-0.2c0.3-0.1,0.5-0.2,0.7-0.4c0.2-0.2,0.3-0.3,0.4-0.5c0.1-0.2,0.1-0.4,0.1-0.5v-1.2
						C201,54,200.8,54.1,200.5,54.1z"/>
					<path fill="#808284" d="M209.6,59.7c-0.5,0.6-1.4,0.9-2.5,0.9c-0.3,0-0.7,0-1-0.1c-0.3-0.1-0.7-0.2-1-0.4s-0.5-0.4-0.7-0.7
						s-0.3-0.6-0.3-1h1.2c0,0.2,0.1,0.4,0.2,0.5s0.3,0.3,0.5,0.4c0.2,0.1,0.4,0.2,0.6,0.2c0.2,0,0.4,0.1,0.6,0.1
						c0.4,0,0.7-0.1,1-0.2c0.3-0.1,0.5-0.3,0.7-0.6s0.3-0.5,0.4-0.9s0.1-0.7,0.1-1.1v-0.5h0c-0.2,0.4-0.5,0.8-0.9,1
						c-0.4,0.2-0.9,0.3-1.3,0.3c-0.5,0-1-0.1-1.4-0.3c-0.4-0.2-0.7-0.5-1-0.8s-0.5-0.7-0.6-1.2s-0.2-0.9-0.2-1.4
						c0-0.4,0.1-0.9,0.2-1.3c0.1-0.5,0.3-0.9,0.6-1.2c0.3-0.4,0.6-0.7,1-0.9s1-0.4,1.6-0.4c0.5,0,0.9,0.1,1.3,0.3
						c0.4,0.2,0.7,0.5,0.9,0.9h0v-1h1.1V57C210.4,58.2,210.1,59.1,209.6,59.7z M208,56.4c0.3-0.2,0.5-0.4,0.7-0.6
						c0.2-0.3,0.3-0.6,0.4-0.9c0.1-0.3,0.1-0.7,0.1-1c0-0.3,0-0.6-0.1-0.9c-0.1-0.3-0.2-0.6-0.4-0.8c-0.2-0.2-0.4-0.4-0.6-0.6
						s-0.6-0.2-1-0.2c-0.4,0-0.7,0.1-1,0.2s-0.5,0.3-0.7,0.6c-0.2,0.2-0.3,0.5-0.4,0.8s-0.1,0.6-0.1,1c0,0.3,0,0.7,0.1,1
						c0.1,0.3,0.2,0.6,0.3,0.9c0.2,0.3,0.4,0.5,0.6,0.6c0.3,0.2,0.6,0.2,1,0.2S207.8,56.6,208,56.4z"/>
					<path fill="#808284" d="M212,52.5c0.1-0.5,0.4-0.9,0.7-1.2c0.3-0.3,0.7-0.6,1.1-0.8c0.4-0.2,0.9-0.3,1.5-0.3
						c0.6,0,1.1,0.1,1.5,0.3c0.4,0.2,0.8,0.5,1.1,0.8c0.3,0.3,0.5,0.7,0.7,1.2c0.1,0.5,0.2,1,0.2,1.5c0,0.5-0.1,1-0.2,1.5
						s-0.4,0.9-0.7,1.2c-0.3,0.3-0.7,0.6-1.1,0.8c-0.4,0.2-0.9,0.3-1.5,0.3c-0.6,0-1.1-0.1-1.5-0.3s-0.8-0.5-1.1-0.8
						c-0.3-0.3-0.5-0.7-0.7-1.2c-0.1-0.5-0.2-1-0.2-1.5C211.8,53.5,211.8,53,212,52.5z M213.2,55.2c0.1,0.3,0.3,0.6,0.5,0.9
						s0.4,0.4,0.7,0.5c0.3,0.1,0.6,0.2,0.9,0.2s0.6-0.1,0.9-0.2c0.3-0.1,0.5-0.3,0.7-0.5s0.4-0.5,0.5-0.9c0.1-0.3,0.2-0.7,0.2-1.2
						c0-0.4-0.1-0.8-0.2-1.2c-0.1-0.3-0.3-0.6-0.5-0.9s-0.4-0.4-0.7-0.5c-0.3-0.1-0.6-0.2-0.9-0.2s-0.6,0.1-0.9,0.2
						c-0.3,0.1-0.5,0.3-0.7,0.5s-0.4,0.5-0.5,0.9c-0.1,0.3-0.2,0.7-0.2,1.2C213,54.4,213.1,54.8,213.2,55.2z"/>
				</g>
			</g>
			
				<use xlink:href="#iPlayer"  width="32" height="32" id="XMLID_206_" x="-15.4" y="-16.3" transform="matrix(0.9989 0 0 -1 15.4096 15.6985)" overflow="visible"/>
		</g>
		
			<use xlink:href="#Expiring_11"  width="14" height="11" id="XMLID_204_" x="-5.6" y="-5.6" transform="matrix(0.9989 0 0 -1 38.4545 51.3739)" overflow="visible"/>
	</g>
	<circle fill="#0086D1" cx="15" cy="38.2" r="2.5"/>
</g>
</svg>
