<?xml version="1.0" encoding="utf-8"?>
<!-- Generator: Adobe Illustrator 18.0.0, SVG Export Plug-In . SVG Version: 6.00 Build 0)  -->
<!DOCTYPE svg PUBLIC "-//W3C//DTD SVG 1.0//EN" "http://www.w3.org/TR/2001/REC-SVG-20010904/DTD/svg10.dtd">
<svg version="1.0" id="Layer_1" xmlns="http://www.w3.org/2000/svg" xmlns:xlink="http://www.w3.org/1999/xlink" x="0px" y="0px"
	 viewBox="0 0 320 53" enable-background="new 0 0 320 53" xml:space="preserve">
<symbol  id="X_2" viewBox="-52.6 -6.8 59.1 13.4">
	<g>
		<polygon fill="#010202" points="-4.4,-6.5 -6.5,-4.4 4.4,6.5 6.5,4.4 		"/>
		<polygon fill="#010202" points="6.5,-4.4 4.4,-6.5 -6.5,4.4 -4.4,6.5 		"/>
	</g>
	<g>
		<path fill="#010202" d="M-39.6-1.5v3h-2.3C-42,1.6-42,1.8-42.1,1.9l1.6,1.6l-2.1,2.1l-1.6-1.6c-0.1,0.1-0.3,0.1-0.4,0.2v2.3h-3
			V4.2c-0.1-0.1-0.3-0.1-0.4-0.2l-1.6,1.6l-2.1-2.1l1.6-1.6c-0.1-0.1-0.1-0.3-0.2-0.4h-2.3v-3h2.3c0.1-0.1,0.1-0.3,0.2-0.4l-1.6-1.6
			l2.1-2.1l1.6,1.6c0.1-0.1,0.3-0.1,0.4-0.2v-2.3h3v2.3c0.1,0.1,0.3,0.1,0.4,0.2l1.6-1.6l2.1,2.1l-1.6,1.6c0.1,0.1,0.1,0.3,0.2,0.4
			H-39.6z M-46.1-1.5c-0.8,0-1.5,0.7-1.5,1.5c0,0.8,0.7,1.5,1.5,1.5c0.8,0,1.5-0.7,1.5-1.5C-44.6-0.8-45.3-1.5-46.1-1.5z"/>
	</g>
	<polygon fill="#C0C0BF" points="-23.5,-6.8 -22.5,-6.8 -22.5,6.6 -23.5,6.6 	"/>
</symbol>
<g>
	<g>
		<path fill="#221F1F" d="M25.1,14.5h2.6v19.1h-2.4L12.5,18.9v14.7H10V14.5h2.2l12.9,14.8V14.5z"/>
		<path fill="#221F1F" d="M41.1,14.2c3,0,5.4,0.9,7.4,2.8c2,1.9,2.9,4.2,2.9,7s-1,5.1-3,7S44,33.8,41,33.8c-2.9,0-5.3-0.9-7.2-2.8
			c-1.9-1.8-2.9-4.2-2.9-6.9c0-2.9,1-5.2,2.9-7.1C35.7,15.2,38.2,14.2,41.1,14.2z M41.2,16.8c-2.2,0-4,0.7-5.4,2.1s-2.1,3.1-2.1,5.2
			c0,2.1,0.7,3.8,2.1,5.1c1.4,1.4,3.2,2.1,5.3,2.1c2.1,0,3.9-0.7,5.3-2.1c1.4-1.4,2.1-3.1,2.1-5.2c0-2-0.7-3.7-2.1-5.1
			C45.1,17.5,43.3,16.8,41.2,16.8z"/>
		<path fill="#221F1F" d="M51.3,14.5h16v2.4h-6.7v16.7h-2.7V16.9h-6.5V14.5z"/>
		<path fill="#221F1F" d="M69.9,14.5h2.7v19.1h-2.7V14.5z"/>
		<path fill="#221F1F" d="M76.9,14.5h10.2v2.4h-7.5v5.3h7.5v2.4h-7.5v8.9h-2.7V14.5z"/>
		<path fill="#221F1F" d="M90.1,14.5h2.7v19.1h-2.7V14.5z"/>
		<path fill="#221F1F" d="M113.5,29.2v3c-2,1.1-4.3,1.6-6.9,1.6c-2.1,0-3.9-0.4-5.4-1.3c-1.5-0.9-2.7-2-3.5-3.5
			c-0.9-1.5-1.3-3.1-1.3-4.9c0-2.8,1-5.1,3-7c2-1.9,4.4-2.8,7.3-2.8c2,0,4.2,0.5,6.7,1.6v2.9c-2.2-1.3-4.4-1.9-6.5-1.9
			c-2.2,0-4,0.7-5.4,2.1c-1.4,1.4-2.2,3.1-2.2,5.2c0,2.1,0.7,3.8,2.1,5.2c1.4,1.3,3.2,2,5.5,2C109,31.3,111.3,30.6,113.5,29.2z"/>
		<path fill="#221F1F" d="M123.6,14.4h1.9l8.6,19.2h-2.8l-2.5-5.7h-8.1l-2.4,5.7h-2.8L123.6,14.4z M127.7,25.5l-3.1-6.9l-2.9,6.9
			H127.7z"/>
		<path fill="#221F1F" d="M131.8,14.5h16v2.4h-6.7v16.7h-2.7V16.9h-6.5V14.5z"/>
		<path fill="#221F1F" d="M150.4,14.5h2.7v19.1h-2.7V14.5z"/>
		<path fill="#221F1F" d="M166.7,14.2c3,0,5.4,0.9,7.4,2.8c2,1.9,2.9,4.2,2.9,7s-1,5.1-3,7s-4.5,2.8-7.5,2.8c-2.9,0-5.3-0.9-7.2-2.8
			c-1.9-1.8-2.9-4.2-2.9-6.9c0-2.9,1-5.2,2.9-7.1C161.3,15.2,163.8,14.2,166.7,14.2z M166.8,16.8c-2.2,0-4,0.7-5.4,2.1
			s-2.1,3.1-2.1,5.2c0,2.1,0.7,3.8,2.1,5.1c1.4,1.4,3.2,2.1,5.3,2.1c2.1,0,3.9-0.7,5.3-2.1c1.4-1.4,2.1-3.1,2.1-5.2
			c0-2-0.7-3.7-2.1-5.1C170.6,17.5,168.9,16.8,166.8,16.8z"/>
		<path fill="#221F1F" d="M195.6,14.5h2.6v19.1h-2.4L183,18.9v14.7h-2.6V14.5h2.2l12.9,14.8V14.5z"/>
		<path fill="#221F1F" d="M207,25.6l-2.1-1.3c-1.3-0.8-2.2-1.6-2.8-2.3c-0.6-0.8-0.8-1.7-0.8-2.7c0-1.5,0.5-2.7,1.6-3.7
			c1-0.9,2.4-1.4,4.1-1.4c1.6,0,3.1,0.4,4.4,1.3v3.1c-1.4-1.3-2.9-2-4.4-2c-0.9,0-1.6,0.2-2.2,0.6s-0.9,0.9-0.9,1.6
			c0,0.6,0.2,1.1,0.6,1.6c0.4,0.5,1.1,1,2,1.6l2.1,1.2c2.3,1.4,3.5,3.2,3.5,5.3c0,1.5-0.5,2.8-1.5,3.7s-2.4,1.4-4,1.4
			c-1.9,0-3.6-0.6-5.2-1.7v-3.5c1.5,1.9,3.2,2.8,5.1,2.8c0.9,0,1.6-0.2,2.1-0.7c0.6-0.5,0.9-1.1,0.9-1.8
			C209.5,27.7,208.6,26.6,207,25.6z"/>
	</g>
	<line fill="none" stroke="#DCDCDC" stroke-miterlimit="10" x1="0" y1="49.5" x2="320" y2="49.5"/>
	
		<use xlink:href="#X_2"  width="59.1" height="13.4" id="XMLID_86_" x="-52.6" y="-6.8" transform="matrix(1 0 0 -1 297.7176 23.7933)" overflow="visible"/>
</g>
</svg>
