<?xml version="1.0" encoding="utf-8"?>
<!-- Generator: Adobe Illustrator 18.0.0, SVG Export Plug-In . SVG Version: 6.00 Build 0)  -->
<!DOCTYPE svg PUBLIC "-//W3C//DTD SVG 1.0//EN" "http://www.w3.org/TR/2001/REC-SVG-20010904/DTD/svg10.dtd">
<svg version="1.0" id="Layer_1" xmlns="http://www.w3.org/2000/svg" xmlns:xlink="http://www.w3.org/1999/xlink" x="0px" y="0px"
	 viewBox="0 0 311.2 66" enable-background="new 0 0 311.2 66" xml:space="preserve">
<symbol  id="iPlayer" viewBox="-15.4 -16.3 32 32">
	<polygon fill="none" points="16.6,-16.3 -15.4,-16.3 -15.4,15.7 16.6,15.7 	"/>
	<polygon fill="#010202" points="-1.2,6.8 -4.2,6.8 -4.2,3.8 -1.2,3.8 -1.2,5 4,0.3 -1.2,-4.5 -1.2,1.8 -4.2,1.8 -4.2,-6.2 
		-1.2,-6.2 5.8,0.3 	"/>
</symbol>
<g>
	<g>
		<g>
			<g>
				<path fill="#221F1F" d="M37.4,7.9c1.1,0,1.9,0.3,2.5,0.8c0.6,0.6,0.8,1.3,0.8,2.3s-0.3,1.8-0.8,2.3c-0.6,0.6-1.4,0.8-2.5,0.8
					h-3.3v4.4h-1.4V7.9H37.4z M36.9,13c0.8,0,1.4-0.2,1.8-0.5s0.6-0.8,0.6-1.5s-0.2-1.1-0.6-1.5c-0.4-0.3-1-0.5-1.8-0.5h-2.8V13
					H36.9z"/>
				<path fill="#221F1F" d="M42,13.2c0.2-0.5,0.4-0.9,0.7-1.3c0.3-0.4,0.7-0.7,1.2-0.9c0.5-0.2,1-0.3,1.6-0.3c0.6,0,1.2,0.1,1.6,0.3
					s0.9,0.5,1.2,0.9c0.3,0.4,0.6,0.8,0.7,1.3s0.2,1,0.2,1.6s-0.1,1.1-0.2,1.6c-0.2,0.5-0.4,0.9-0.7,1.3c-0.3,0.4-0.7,0.6-1.2,0.9
					s-1,0.3-1.6,0.3c-0.6,0-1.1-0.1-1.6-0.3c-0.5-0.2-0.9-0.5-1.2-0.9c-0.3-0.4-0.6-0.8-0.7-1.3c-0.2-0.5-0.2-1-0.2-1.6
					S41.9,13.6,42,13.2z M43.3,16c0.1,0.4,0.3,0.7,0.5,0.9s0.5,0.4,0.8,0.6s0.6,0.2,0.9,0.2s0.6-0.1,0.9-0.2s0.6-0.3,0.8-0.6
					s0.4-0.5,0.5-0.9s0.2-0.8,0.2-1.3c0-0.5-0.1-0.9-0.2-1.3c-0.1-0.4-0.3-0.7-0.5-0.9s-0.5-0.4-0.8-0.6s-0.6-0.2-0.9-0.2
					s-0.6,0.1-0.9,0.2s-0.6,0.3-0.8,0.6s-0.4,0.6-0.5,0.9c-0.1,0.4-0.2,0.8-0.2,1.3C43.1,15.2,43.2,15.6,43.3,16z"/>
				<path fill="#221F1F" d="M52.2,7.9v10.7h-1.3V7.9H52.2z"/>
				<path fill="#221F1F" d="M59.8,18.6v-1h0c-0.2,0.4-0.5,0.7-1,0.9c-0.5,0.2-0.9,0.3-1.5,0.3c-0.6,0-1.1-0.1-1.6-0.3
					c-0.4-0.2-0.8-0.5-1.1-0.9s-0.5-0.8-0.7-1.3c-0.1-0.5-0.2-1-0.2-1.6c0-0.5,0.1-1.1,0.2-1.6c0.1-0.5,0.4-0.9,0.7-1.3
					c0.3-0.4,0.7-0.7,1.1-0.9s1-0.3,1.6-0.3c0.2,0,0.4,0,0.6,0.1c0.2,0,0.5,0.1,0.7,0.2c0.2,0.1,0.4,0.2,0.7,0.4
					c0.2,0.2,0.4,0.3,0.5,0.6h0v-4h1.3v10.7H59.8z M55.2,15.9c0.1,0.3,0.2,0.7,0.4,0.9c0.2,0.3,0.4,0.5,0.8,0.6
					c0.3,0.2,0.7,0.2,1.1,0.2c0.4,0,0.8-0.1,1.1-0.3s0.5-0.4,0.7-0.7c0.2-0.3,0.3-0.6,0.4-0.9c0.1-0.4,0.1-0.7,0.1-1.1
					c0-0.4,0-0.7-0.1-1.1c-0.1-0.4-0.2-0.7-0.4-0.9c-0.2-0.3-0.4-0.5-0.8-0.7s-0.7-0.2-1.1-0.2c-0.4,0-0.8,0.1-1.1,0.3
					s-0.5,0.4-0.7,0.7c-0.2,0.3-0.3,0.6-0.4,1s-0.1,0.7-0.1,1.1C55.1,15.2,55.1,15.5,55.2,15.9z"/>
				<path fill="#221F1F" d="M69,18.8c-0.3,0-0.6-0.1-0.8-0.3c-0.2-0.2-0.3-0.5-0.3-0.9c-0.4,0.4-0.8,0.7-1.2,0.9
					c-0.5,0.2-1,0.3-1.5,0.3c-0.4,0-0.7,0-1-0.1c-0.3-0.1-0.6-0.2-0.8-0.4c-0.2-0.2-0.4-0.4-0.6-0.7c-0.1-0.3-0.2-0.6-0.2-1
					c0-0.4,0.1-0.8,0.2-1.1c0.2-0.3,0.3-0.5,0.6-0.7c0.2-0.2,0.5-0.3,0.8-0.4c0.3-0.1,0.6-0.2,1-0.2c0.3-0.1,0.7-0.1,1-0.2
					c0.3,0,0.6-0.1,0.8-0.2c0.2-0.1,0.4-0.2,0.6-0.3c0.1-0.1,0.2-0.3,0.2-0.5c0-0.3-0.1-0.5-0.2-0.7c-0.1-0.2-0.2-0.3-0.4-0.4
					s-0.4-0.2-0.6-0.2c-0.2,0-0.4,0-0.6,0c-0.5,0-1,0.1-1.3,0.3c-0.4,0.2-0.6,0.6-0.6,1.2h-1.3c0-0.5,0.1-0.9,0.3-1.2
					c0.2-0.3,0.4-0.6,0.7-0.8c0.3-0.2,0.6-0.4,1-0.4c0.4-0.1,0.8-0.1,1.2-0.1c0.3,0,0.7,0,1,0.1c0.3,0.1,0.7,0.2,0.9,0.3
					c0.3,0.2,0.5,0.4,0.7,0.7c0.2,0.3,0.3,0.6,0.3,1.1v4c0,0.3,0,0.5,0.1,0.7c0,0.1,0.2,0.2,0.4,0.2c0.1,0,0.2,0,0.4-0.1v1
					C69.7,18.7,69.4,18.8,69,18.8z M67.2,14.9c-0.3,0.1-0.5,0.1-0.8,0.1s-0.6,0.1-0.9,0.1s-0.5,0.1-0.8,0.2
					c-0.2,0.1-0.4,0.2-0.6,0.4C64,16,64,16.2,64,16.5c0,0.2,0,0.4,0.1,0.5c0.1,0.1,0.2,0.3,0.3,0.4s0.3,0.2,0.5,0.2
					c0.2,0,0.4,0.1,0.6,0.1c0.4,0,0.8-0.1,1.1-0.2s0.5-0.3,0.7-0.4c0.2-0.2,0.3-0.4,0.4-0.6s0.1-0.4,0.1-0.6v-1.3
					C67.7,14.7,67.5,14.8,67.2,14.9z"/>
				<path fill="#221F1F" d="M72.2,10.9v1.6h0c0.3-0.6,0.7-1.1,1.1-1.4c0.5-0.3,1-0.4,1.7-0.4V12c-0.5,0-0.9,0.1-1.3,0.2
					c-0.4,0.1-0.7,0.3-0.9,0.6c-0.2,0.3-0.4,0.6-0.5,1s-0.1,0.8-0.1,1.3v3.5H71v-7.8H72.2z"/>
				<path fill="#221F1F" d="M77.4,7.9v6.3l3.5-3.4h1.7l-3.1,2.8l3.3,4.9h-1.6l-2.7-4l-1.2,1.1v2.9h-1.3V7.9H77.4z"/>
				<path fill="#221F1F" d="M93.5,18.1c-0.6,0.4-1.3,0.7-2.2,0.7c-0.6,0-1.2-0.1-1.6-0.3c-0.5-0.2-0.8-0.5-1.1-0.8
					c-0.3-0.4-0.5-0.8-0.7-1.3c-0.2-0.5-0.2-1-0.3-1.6c0-0.6,0.1-1.1,0.3-1.6c0.2-0.5,0.4-0.9,0.8-1.3s0.7-0.6,1.2-0.8
					c0.4-0.2,0.9-0.3,1.5-0.3c0.7,0,1.3,0.1,1.7,0.4s0.8,0.6,1.1,1.1c0.3,0.4,0.5,0.9,0.6,1.4c0.1,0.5,0.1,1,0.1,1.5H89
					c0,0.3,0,0.7,0.1,1s0.2,0.6,0.4,0.8c0.2,0.2,0.5,0.4,0.8,0.6c0.3,0.1,0.7,0.2,1.1,0.2c0.5,0,1-0.1,1.3-0.4
					c0.3-0.2,0.6-0.6,0.7-1.1h1.3C94.5,17,94.1,17.7,93.5,18.1z M93.2,13.1c-0.1-0.3-0.3-0.5-0.5-0.7c-0.2-0.2-0.4-0.3-0.7-0.5
					c-0.3-0.1-0.6-0.2-0.9-0.2c-0.3,0-0.6,0.1-0.9,0.2c-0.3,0.1-0.5,0.3-0.7,0.5c-0.2,0.2-0.3,0.4-0.5,0.7C89.1,13.4,89,13.7,89,14
					h4.5C93.4,13.7,93.3,13.4,93.2,13.1z"/>
				<path fill="#221F1F" d="M97.4,10.9v1h0c0.2-0.4,0.5-0.7,1-0.9s0.9-0.3,1.5-0.3c0.6,0,1.1,0.1,1.6,0.3c0.4,0.2,0.8,0.5,1.1,0.9
					c0.3,0.4,0.5,0.8,0.7,1.3c0.2,0.5,0.2,1,0.2,1.6c0,0.6-0.1,1.1-0.2,1.6c-0.1,0.5-0.4,0.9-0.7,1.3c-0.3,0.4-0.7,0.7-1.1,0.9
					c-0.4,0.2-1,0.3-1.6,0.3c-0.2,0-0.4,0-0.6-0.1c-0.2,0-0.5-0.1-0.7-0.2c-0.2-0.1-0.4-0.2-0.7-0.4c-0.2-0.2-0.4-0.3-0.5-0.6h0v4
					h-1.3V10.9H97.4z M102,13.6c-0.1-0.3-0.2-0.7-0.4-0.9c-0.2-0.3-0.4-0.5-0.8-0.6c-0.3-0.2-0.7-0.2-1.1-0.2
					c-0.4,0-0.8,0.1-1.1,0.3s-0.5,0.4-0.7,0.7c-0.2,0.3-0.3,0.6-0.4,0.9c-0.1,0.4-0.1,0.7-0.1,1.1c0,0.4,0,0.7,0.1,1.1
					c0.1,0.4,0.2,0.7,0.4,0.9c0.2,0.3,0.4,0.5,0.8,0.7c0.3,0.2,0.7,0.2,1.1,0.2c0.4,0,0.8-0.1,1.1-0.3s0.5-0.4,0.7-0.7
					s0.3-0.6,0.4-1s0.1-0.7,0.1-1.1C102.1,14.3,102.1,14,102,13.6z"/>
				<path fill="#221F1F" d="M105.1,9.5V7.9h1.3v1.6H105.1z M106.3,10.9v7.8h-1.3v-7.8H106.3z"/>
				<path fill="#221F1F" d="M109.3,16.9c0.1,0.2,0.3,0.3,0.5,0.5c0.2,0.1,0.4,0.2,0.7,0.2c0.2,0,0.5,0.1,0.8,0.1c0.2,0,0.4,0,0.6,0
					c0.2,0,0.4-0.1,0.6-0.2c0.2-0.1,0.3-0.2,0.5-0.4c0.1-0.2,0.2-0.4,0.2-0.6c0-0.3-0.1-0.6-0.4-0.8s-0.6-0.3-0.9-0.4
					c-0.4-0.1-0.8-0.2-1.2-0.3c-0.4-0.1-0.8-0.2-1.2-0.4s-0.7-0.4-0.9-0.7c-0.2-0.3-0.4-0.7-0.4-1.2c0-0.4,0.1-0.7,0.3-1
					c0.2-0.3,0.4-0.5,0.7-0.7c0.3-0.2,0.6-0.3,0.9-0.4c0.3-0.1,0.7-0.1,1-0.1c0.4,0,0.8,0,1.2,0.1c0.4,0.1,0.7,0.2,1,0.4
					c0.3,0.2,0.5,0.4,0.7,0.8c0.2,0.3,0.3,0.7,0.3,1.2h-1.3c0-0.2-0.1-0.5-0.2-0.6c-0.1-0.2-0.2-0.3-0.4-0.4
					c-0.2-0.1-0.4-0.2-0.6-0.2c-0.2,0-0.4-0.1-0.6-0.1c-0.2,0-0.4,0-0.6,0c-0.2,0-0.4,0.1-0.5,0.2c-0.2,0.1-0.3,0.2-0.4,0.3
					s-0.1,0.3-0.1,0.5c0,0.2,0.1,0.4,0.2,0.5c0.2,0.1,0.4,0.3,0.6,0.4c0.2,0.1,0.5,0.2,0.8,0.2c0.3,0.1,0.6,0.1,0.9,0.2
					c0.3,0.1,0.6,0.2,0.9,0.3c0.3,0.1,0.6,0.2,0.8,0.4c0.2,0.2,0.4,0.4,0.6,0.6c0.1,0.2,0.2,0.6,0.2,0.9c0,0.5-0.1,0.9-0.3,1.2
					c-0.2,0.3-0.5,0.6-0.8,0.8c-0.3,0.2-0.7,0.3-1.1,0.4c-0.4,0.1-0.8,0.1-1.2,0.1c-0.4,0-0.8,0-1.2-0.1c-0.4-0.1-0.7-0.2-1-0.4
					c-0.3-0.2-0.5-0.5-0.7-0.8c-0.2-0.3-0.3-0.7-0.3-1.2h1.3C109.1,16.5,109.2,16.7,109.3,16.9z"/>
				<path fill="#221F1F" d="M115.6,13.2c0.2-0.5,0.4-0.9,0.7-1.3c0.3-0.4,0.7-0.7,1.2-0.9c0.5-0.2,1-0.3,1.6-0.3
					c0.6,0,1.2,0.1,1.6,0.3s0.9,0.5,1.2,0.9c0.3,0.4,0.6,0.8,0.7,1.3s0.2,1,0.2,1.6s-0.1,1.1-0.2,1.6c-0.2,0.5-0.4,0.9-0.7,1.3
					c-0.3,0.4-0.7,0.6-1.2,0.9s-1,0.3-1.6,0.3c-0.6,0-1.1-0.1-1.6-0.3c-0.5-0.2-0.9-0.5-1.2-0.9c-0.3-0.4-0.6-0.8-0.7-1.3
					c-0.2-0.5-0.2-1-0.2-1.6S115.5,13.6,115.6,13.2z M116.9,16c0.1,0.4,0.3,0.7,0.5,0.9s0.5,0.4,0.8,0.6s0.6,0.2,0.9,0.2
					s0.6-0.1,0.9-0.2s0.6-0.3,0.8-0.6s0.4-0.5,0.5-0.9s0.2-0.8,0.2-1.3c0-0.5-0.1-0.9-0.2-1.3c-0.1-0.4-0.3-0.7-0.5-0.9
					s-0.5-0.4-0.8-0.6s-0.6-0.2-0.9-0.2s-0.6,0.1-0.9,0.2s-0.6,0.3-0.8,0.6s-0.4,0.6-0.5,0.9c-0.1,0.4-0.2,0.8-0.2,1.3
					C116.7,15.2,116.8,15.6,116.9,16z"/>
				<path fill="#221F1F" d="M130.1,18.6v-1h0c-0.2,0.4-0.5,0.7-1,0.9c-0.5,0.2-0.9,0.3-1.5,0.3c-0.6,0-1.1-0.1-1.6-0.3
					c-0.4-0.2-0.8-0.5-1.1-0.9s-0.5-0.8-0.7-1.3c-0.1-0.5-0.2-1-0.2-1.6c0-0.5,0.1-1.1,0.2-1.6c0.1-0.5,0.4-0.9,0.7-1.3
					c0.3-0.4,0.7-0.7,1.1-0.9s1-0.3,1.6-0.3c0.2,0,0.4,0,0.6,0.1c0.2,0,0.5,0.1,0.7,0.2c0.2,0.1,0.4,0.2,0.7,0.4
					c0.2,0.2,0.4,0.3,0.5,0.6h0v-4h1.3v10.7H130.1z M125.5,15.9c0.1,0.3,0.2,0.7,0.4,0.9c0.2,0.3,0.4,0.5,0.8,0.6
					c0.3,0.2,0.7,0.2,1.1,0.2c0.4,0,0.8-0.1,1.1-0.3s0.5-0.4,0.7-0.7c0.2-0.3,0.3-0.6,0.4-0.9c0.1-0.4,0.1-0.7,0.1-1.1
					c0-0.4,0-0.7-0.1-1.1c-0.1-0.4-0.2-0.7-0.4-0.9c-0.2-0.3-0.4-0.5-0.8-0.7s-0.7-0.2-1.1-0.2c-0.4,0-0.8,0.1-1.1,0.3
					s-0.5,0.4-0.7,0.7c-0.2,0.3-0.3,0.6-0.4,1s-0.1,0.7-0.1,1.1C125.4,15.2,125.4,15.5,125.5,15.9z"/>
				<path fill="#221F1F" d="M138.8,18.1c-0.6,0.4-1.3,0.7-2.2,0.7c-0.6,0-1.2-0.1-1.6-0.3c-0.5-0.2-0.8-0.5-1.1-0.8
					c-0.3-0.4-0.5-0.8-0.7-1.3c-0.2-0.5-0.2-1-0.3-1.6c0-0.6,0.1-1.1,0.3-1.6c0.2-0.5,0.4-0.9,0.8-1.3s0.7-0.6,1.2-0.8
					c0.4-0.2,0.9-0.3,1.5-0.3c0.7,0,1.3,0.1,1.7,0.4s0.8,0.6,1.1,1.1c0.3,0.4,0.5,0.9,0.6,1.4c0.1,0.5,0.1,1,0.1,1.5h-5.8
					c0,0.3,0,0.7,0.1,1s0.2,0.6,0.4,0.8c0.2,0.2,0.5,0.4,0.8,0.6c0.3,0.1,0.7,0.2,1.1,0.2c0.5,0,1-0.1,1.3-0.4
					c0.3-0.2,0.6-0.6,0.7-1.1h1.3C139.8,17,139.4,17.7,138.8,18.1z M138.5,13.1c-0.1-0.3-0.3-0.5-0.5-0.7c-0.2-0.2-0.4-0.3-0.7-0.5
					c-0.3-0.1-0.6-0.2-0.9-0.2c-0.3,0-0.6,0.1-0.9,0.2c-0.3,0.1-0.5,0.3-0.7,0.5c-0.2,0.2-0.3,0.4-0.5,0.7c-0.1,0.3-0.2,0.5-0.2,0.8
					h4.5C138.7,13.7,138.6,13.4,138.5,13.1z"/>
				<path fill="#221F1F" d="M150.2,9.5c-0.3-0.3-0.7-0.4-1.2-0.4c-0.5,0-1,0.1-1.3,0.4s-0.6,0.6-0.8,1c-0.2,0.4-0.3,0.8-0.4,1.3
					s-0.1,0.9-0.1,1.3l0,0c0.3-0.5,0.7-0.8,1.1-1.1c0.4-0.2,1-0.3,1.5-0.3c0.5,0,1,0.1,1.4,0.3s0.7,0.4,1,0.7
					c0.3,0.3,0.5,0.7,0.6,1.1c0.2,0.4,0.2,0.9,0.2,1.4c0,0.4-0.1,0.8-0.2,1.2c-0.1,0.4-0.3,0.8-0.6,1.1c-0.3,0.3-0.6,0.6-1.1,0.9
					c-0.5,0.2-1,0.3-1.7,0.3c-0.8,0-1.4-0.2-1.9-0.5c-0.5-0.3-0.9-0.7-1.1-1.2s-0.4-1-0.5-1.7c-0.1-0.6-0.1-1.2-0.1-1.7
					c0-0.7,0.1-1.4,0.2-2.1c0.1-0.7,0.3-1.3,0.6-1.8c0.3-0.5,0.7-1,1.2-1.3c0.5-0.3,1.1-0.5,1.9-0.5c0.9,0,1.6,0.2,2.1,0.7
					c0.5,0.5,0.8,1.1,0.9,2h-1.3C150.7,10.2,150.6,9.8,150.2,9.5z M147.9,13.1c-0.3,0.1-0.5,0.3-0.7,0.5c-0.2,0.2-0.3,0.5-0.4,0.8
					c-0.1,0.3-0.1,0.6-0.1,0.9c0,0.3,0,0.6,0.2,0.9c0.1,0.3,0.2,0.5,0.4,0.8c0.2,0.2,0.4,0.4,0.7,0.5c0.3,0.1,0.6,0.2,0.9,0.2
					c0.3,0,0.7-0.1,0.9-0.2c0.3-0.1,0.5-0.3,0.7-0.5c0.2-0.2,0.3-0.5,0.4-0.8c0.1-0.3,0.1-0.6,0.1-0.9c0-0.3,0-0.6-0.1-0.9
					s-0.2-0.5-0.4-0.8c-0.2-0.2-0.4-0.4-0.7-0.5c-0.3-0.1-0.6-0.2-0.9-0.2S148.2,13,147.9,13.1z"/>
				<path fill="#221F1F" d="M159.3,10.9v1.2h0c0.5-0.9,1.4-1.4,2.5-1.4c0.5,0,0.9,0.1,1.3,0.2c0.3,0.1,0.6,0.3,0.8,0.6
					s0.4,0.5,0.4,0.9c0.1,0.3,0.1,0.7,0.1,1.1v5.1h-1.3v-5.2c0-0.5-0.1-0.9-0.4-1.1c-0.3-0.3-0.7-0.4-1.2-0.4c-0.4,0-0.7,0.1-1,0.2
					s-0.5,0.3-0.7,0.5c-0.2,0.2-0.3,0.5-0.4,0.8c-0.1,0.3-0.1,0.6-0.1,1v4.4h-1.3v-7.8H159.3z"/>
				<path fill="#221F1F" d="M166.2,13.2c0.2-0.5,0.4-0.9,0.7-1.3c0.3-0.4,0.7-0.7,1.2-0.9c0.5-0.2,1-0.3,1.6-0.3
					c0.6,0,1.2,0.1,1.6,0.3s0.9,0.5,1.2,0.9c0.3,0.4,0.6,0.8,0.7,1.3s0.2,1,0.2,1.6s-0.1,1.1-0.2,1.6c-0.2,0.5-0.4,0.9-0.7,1.3
					c-0.3,0.4-0.7,0.6-1.2,0.9s-1,0.3-1.6,0.3c-0.6,0-1.1-0.1-1.6-0.3c-0.5-0.2-0.9-0.5-1.2-0.9c-0.3-0.4-0.6-0.8-0.7-1.3
					c-0.2-0.5-0.2-1-0.2-1.6S166.1,13.6,166.2,13.2z M167.5,16c0.1,0.4,0.3,0.7,0.5,0.9s0.5,0.4,0.8,0.6s0.6,0.2,0.9,0.2
					s0.6-0.1,0.9-0.2s0.6-0.3,0.8-0.6s0.4-0.5,0.5-0.9s0.2-0.8,0.2-1.3c0-0.5-0.1-0.9-0.2-1.3c-0.1-0.4-0.3-0.7-0.5-0.9
					s-0.5-0.4-0.8-0.6s-0.6-0.2-0.9-0.2s-0.6,0.1-0.9,0.2s-0.6,0.3-0.8,0.6s-0.4,0.6-0.5,0.9c-0.1,0.4-0.2,0.8-0.2,1.3
					C167.3,15.2,167.4,15.6,167.5,16z"/>
				<path fill="#221F1F" d="M181.3,18.6l-1.6-6.2h0l-1.6,6.2h-1.4l-2.5-7.8h1.4l1.8,6.3h0l1.6-6.3h1.4l1.6,6.3h0l1.7-6.3h1.3
					l-2.5,7.8H181.3z"/>
				<path fill="#221F1F" d="M196.5,18.8c-0.3,0-0.6-0.1-0.8-0.3c-0.2-0.2-0.3-0.5-0.3-0.9c-0.4,0.4-0.8,0.7-1.2,0.9
					c-0.5,0.2-1,0.3-1.5,0.3c-0.4,0-0.7,0-1-0.1c-0.3-0.1-0.6-0.2-0.8-0.4c-0.2-0.2-0.4-0.4-0.6-0.7c-0.1-0.3-0.2-0.6-0.2-1
					c0-0.4,0.1-0.8,0.2-1.1c0.2-0.3,0.3-0.5,0.6-0.7c0.2-0.2,0.5-0.3,0.8-0.4c0.3-0.1,0.6-0.2,1-0.2c0.3-0.1,0.7-0.1,1-0.2
					c0.3,0,0.6-0.1,0.8-0.2c0.2-0.1,0.4-0.2,0.6-0.3c0.1-0.1,0.2-0.3,0.2-0.5c0-0.3-0.1-0.5-0.2-0.7c-0.1-0.2-0.2-0.3-0.4-0.4
					s-0.4-0.2-0.6-0.2c-0.2,0-0.4,0-0.6,0c-0.5,0-1,0.1-1.3,0.3c-0.4,0.2-0.6,0.6-0.6,1.2h-1.3c0-0.5,0.1-0.9,0.3-1.2
					c0.2-0.3,0.4-0.6,0.7-0.8c0.3-0.2,0.6-0.4,1-0.4c0.4-0.1,0.8-0.1,1.2-0.1c0.3,0,0.7,0,1,0.1c0.3,0.1,0.7,0.2,0.9,0.3
					c0.3,0.2,0.5,0.4,0.7,0.7c0.2,0.3,0.3,0.6,0.3,1.1v4c0,0.3,0,0.5,0.1,0.7c0,0.1,0.2,0.2,0.4,0.2c0.1,0,0.2,0,0.4-0.1v1
					C197.2,18.7,196.9,18.8,196.5,18.8z M194.7,14.9c-0.3,0.1-0.5,0.1-0.8,0.1s-0.6,0.1-0.9,0.1s-0.5,0.1-0.8,0.2
					c-0.2,0.1-0.4,0.2-0.6,0.4c-0.1,0.2-0.2,0.4-0.2,0.8c0,0.2,0,0.4,0.1,0.5c0.1,0.1,0.2,0.3,0.3,0.4s0.3,0.2,0.5,0.2
					c0.2,0,0.4,0.1,0.6,0.1c0.4,0,0.8-0.1,1.1-0.2s0.5-0.3,0.7-0.4c0.2-0.2,0.3-0.4,0.4-0.6s0.1-0.4,0.1-0.6v-1.3
					C195.2,14.7,195,14.8,194.7,14.9z"/>
				<path fill="#221F1F" d="M200.7,18.6l-2.9-7.8h1.4l2.2,6.5h0l2.1-6.5h1.3l-2.8,7.8H200.7z"/>
				<path fill="#221F1F" d="M212.1,18.8c-0.3,0-0.6-0.1-0.8-0.3c-0.2-0.2-0.3-0.5-0.3-0.9c-0.4,0.4-0.8,0.7-1.2,0.9
					c-0.5,0.2-1,0.3-1.5,0.3c-0.4,0-0.7,0-1-0.1c-0.3-0.1-0.6-0.2-0.8-0.4c-0.2-0.2-0.4-0.4-0.6-0.7c-0.1-0.3-0.2-0.6-0.2-1
					c0-0.4,0.1-0.8,0.2-1.1c0.2-0.3,0.3-0.5,0.6-0.7c0.2-0.2,0.5-0.3,0.8-0.4c0.3-0.1,0.6-0.2,1-0.2c0.3-0.1,0.7-0.1,1-0.2
					c0.3,0,0.6-0.1,0.8-0.2c0.2-0.1,0.4-0.2,0.6-0.3c0.1-0.1,0.2-0.3,0.2-0.5c0-0.3-0.1-0.5-0.2-0.7c-0.1-0.2-0.2-0.3-0.4-0.4
					s-0.4-0.2-0.6-0.2c-0.2,0-0.4,0-0.6,0c-0.5,0-1,0.1-1.3,0.3c-0.4,0.2-0.6,0.6-0.6,1.2H206c0-0.5,0.1-0.9,0.3-1.2
					c0.2-0.3,0.4-0.6,0.7-0.8c0.3-0.2,0.6-0.4,1-0.4c0.4-0.1,0.8-0.1,1.2-0.1c0.3,0,0.7,0,1,0.1c0.3,0.1,0.7,0.2,0.9,0.3
					c0.3,0.2,0.5,0.4,0.7,0.7c0.2,0.3,0.3,0.6,0.3,1.1v4c0,0.3,0,0.5,0.1,0.7c0,0.1,0.2,0.2,0.4,0.2c0.1,0,0.2,0,0.4-0.1v1
					C212.8,18.7,212.4,18.8,212.1,18.8z M210.3,14.9c-0.3,0.1-0.5,0.1-0.8,0.1s-0.6,0.1-0.9,0.1s-0.5,0.1-0.8,0.2
					c-0.2,0.1-0.4,0.2-0.6,0.4c-0.1,0.2-0.2,0.4-0.2,0.8c0,0.2,0,0.4,0.1,0.5c0.1,0.1,0.2,0.3,0.3,0.4s0.3,0.2,0.5,0.2
					c0.2,0,0.4,0.1,0.6,0.1c0.4,0,0.8-0.1,1.1-0.2s0.5-0.3,0.7-0.4c0.2-0.2,0.3-0.4,0.4-0.6s0.1-0.4,0.1-0.6v-1.3
					C210.7,14.7,210.5,14.8,210.3,14.9z"/>
				<path fill="#221F1F" d="M214.2,9.5V7.9h1.3v1.6H214.2z M215.5,10.9v7.8h-1.3v-7.8H215.5z"/>
				<path fill="#221F1F" d="M218.8,7.9v10.7h-1.3V7.9H218.8z"/>
				<path fill="#221F1F" d="M226.8,18.8c-0.3,0-0.6-0.1-0.8-0.3c-0.2-0.2-0.3-0.5-0.3-0.9c-0.4,0.4-0.8,0.7-1.2,0.9
					c-0.5,0.2-1,0.3-1.5,0.3c-0.4,0-0.7,0-1-0.1c-0.3-0.1-0.6-0.2-0.8-0.4c-0.2-0.2-0.4-0.4-0.6-0.7c-0.1-0.3-0.2-0.6-0.2-1
					c0-0.4,0.1-0.8,0.2-1.1c0.2-0.3,0.3-0.5,0.6-0.7c0.2-0.2,0.5-0.3,0.8-0.4c0.3-0.1,0.6-0.2,1-0.2c0.3-0.1,0.7-0.1,1-0.2
					c0.3,0,0.6-0.1,0.8-0.2c0.2-0.1,0.4-0.2,0.6-0.3c0.1-0.1,0.2-0.3,0.2-0.5c0-0.3-0.1-0.5-0.2-0.7c-0.1-0.2-0.2-0.3-0.4-0.4
					s-0.4-0.2-0.6-0.2c-0.2,0-0.4,0-0.6,0c-0.5,0-1,0.1-1.3,0.3c-0.4,0.2-0.6,0.6-0.6,1.2h-1.3c0-0.5,0.1-0.9,0.3-1.2
					c0.2-0.3,0.4-0.6,0.7-0.8c0.3-0.2,0.6-0.4,1-0.4c0.4-0.1,0.8-0.1,1.2-0.1c0.3,0,0.7,0,1,0.1c0.3,0.1,0.7,0.2,0.9,0.3
					c0.3,0.2,0.5,0.4,0.7,0.7c0.2,0.3,0.3,0.6,0.3,1.1v4c0,0.3,0,0.5,0.1,0.7c0,0.1,0.2,0.2,0.4,0.2c0.1,0,0.2,0,0.4-0.1v1
					C227.5,18.7,227.2,18.8,226.8,18.8z M225,14.9c-0.3,0.1-0.5,0.1-0.8,0.1s-0.6,0.1-0.9,0.1s-0.5,0.1-0.8,0.2
					c-0.2,0.1-0.4,0.2-0.6,0.4c-0.1,0.2-0.2,0.4-0.2,0.8c0,0.2,0,0.4,0.1,0.5c0.1,0.1,0.2,0.3,0.3,0.4s0.3,0.2,0.5,0.2
					c0.2,0,0.4,0.1,0.6,0.1c0.4,0,0.8-0.1,1.1-0.2s0.5-0.3,0.7-0.4c0.2-0.2,0.3-0.4,0.4-0.6s0.1-0.4,0.1-0.6v-1.3
					C225.5,14.7,225.2,14.8,225,14.9z"/>
				<path fill="#221F1F" d="M230.2,7.9v4h0c0.2-0.4,0.5-0.7,1-0.9s0.9-0.3,1.5-0.3c0.6,0,1.1,0.1,1.6,0.3c0.4,0.2,0.8,0.5,1.1,0.9
					c0.3,0.4,0.5,0.8,0.7,1.3c0.2,0.5,0.2,1,0.2,1.6c0,0.6-0.1,1.1-0.2,1.6c-0.1,0.5-0.4,0.9-0.7,1.3c-0.3,0.4-0.7,0.7-1.1,0.9
					c-0.4,0.2-1,0.3-1.6,0.3c-0.2,0-0.4,0-0.6-0.1c-0.2,0-0.5-0.1-0.7-0.2c-0.2-0.1-0.4-0.2-0.7-0.4c-0.2-0.2-0.4-0.3-0.5-0.6h0v1
					h-1.3V7.9H230.2z M234.8,13.6c-0.1-0.3-0.2-0.7-0.4-0.9c-0.2-0.3-0.4-0.5-0.8-0.6c-0.3-0.2-0.7-0.2-1.1-0.2
					c-0.4,0-0.8,0.1-1.1,0.3s-0.5,0.4-0.7,0.7c-0.2,0.3-0.3,0.6-0.4,0.9c-0.1,0.4-0.1,0.7-0.1,1.1c0,0.4,0,0.7,0.1,1.1
					c0.1,0.4,0.2,0.7,0.4,0.9c0.2,0.3,0.4,0.5,0.8,0.7c0.3,0.2,0.7,0.2,1.1,0.2c0.4,0,0.8-0.1,1.1-0.3s0.5-0.4,0.7-0.7
					s0.3-0.6,0.4-1s0.1-0.7,0.1-1.1C234.9,14.3,234.9,14,234.8,13.6z"/>
				<path fill="#221F1F" d="M239.1,7.9v10.7h-1.3V7.9H239.1z"/>
				<path fill="#221F1F" d="M246.6,18.1c-0.6,0.4-1.3,0.7-2.2,0.7c-0.6,0-1.2-0.1-1.6-0.3c-0.5-0.2-0.8-0.5-1.1-0.8
					c-0.3-0.4-0.5-0.8-0.7-1.3c-0.2-0.5-0.2-1-0.3-1.6c0-0.6,0.1-1.1,0.3-1.6c0.2-0.5,0.4-0.9,0.8-1.3s0.7-0.6,1.2-0.8
					c0.4-0.2,0.9-0.3,1.5-0.3c0.7,0,1.3,0.1,1.7,0.4s0.8,0.6,1.1,1.1c0.3,0.4,0.5,0.9,0.6,1.4c0.1,0.5,0.1,1,0.1,1.5H242
					c0,0.3,0,0.7,0.1,1s0.2,0.6,0.4,0.8c0.2,0.2,0.5,0.4,0.8,0.6c0.3,0.1,0.7,0.2,1.1,0.2c0.5,0,1-0.1,1.3-0.4
					c0.3-0.2,0.6-0.6,0.7-1.1h1.3C247.5,17,247.2,17.7,246.6,18.1z M246.3,13.1c-0.1-0.3-0.3-0.5-0.5-0.7c-0.2-0.2-0.4-0.3-0.7-0.5
					c-0.3-0.1-0.6-0.2-0.9-0.2c-0.3,0-0.6,0.1-0.9,0.2c-0.3,0.1-0.5,0.3-0.7,0.5c-0.2,0.2-0.3,0.4-0.5,0.7c-0.1,0.3-0.2,0.5-0.2,0.8
					h4.5C246.5,13.7,246.4,13.4,246.3,13.1z"/>
				<path fill="#221F1F" d="M251.1,17v1.7h-1.7V17H251.1z"/>
				<path fill="#221F1F" d="M265.9,18.6l-2.4-9h0l-2.5,9h-1.5l-2.7-10.7h1.5l2.1,8.9h0l2.4-8.9h1.5l2.4,8.9h0l2.2-8.9h1.4l-2.9,10.7
					H265.9z"/>
				<path fill="#221F1F" d="M276.8,18.8c-0.3,0-0.6-0.1-0.8-0.3c-0.2-0.2-0.3-0.5-0.3-0.9c-0.4,0.4-0.8,0.7-1.2,0.9
					c-0.5,0.2-1,0.3-1.5,0.3c-0.4,0-0.7,0-1-0.1c-0.3-0.1-0.6-0.2-0.8-0.4c-0.2-0.2-0.4-0.4-0.6-0.7c-0.1-0.3-0.2-0.6-0.2-1
					c0-0.4,0.1-0.8,0.2-1.1c0.2-0.3,0.3-0.5,0.6-0.7c0.2-0.2,0.5-0.3,0.8-0.4c0.3-0.1,0.6-0.2,1-0.2c0.3-0.1,0.7-0.1,1-0.2
					c0.3,0,0.6-0.1,0.8-0.2c0.2-0.1,0.4-0.2,0.6-0.3c0.1-0.1,0.2-0.3,0.2-0.5c0-0.3-0.1-0.5-0.2-0.7c-0.1-0.2-0.2-0.3-0.4-0.4
					s-0.4-0.2-0.6-0.2c-0.2,0-0.4,0-0.6,0c-0.5,0-1,0.1-1.3,0.3c-0.4,0.2-0.6,0.6-0.6,1.2h-1.3c0-0.5,0.1-0.9,0.3-1.2
					c0.2-0.3,0.4-0.6,0.7-0.8c0.3-0.2,0.6-0.4,1-0.4c0.4-0.1,0.8-0.1,1.2-0.1c0.3,0,0.7,0,1,0.1c0.3,0.1,0.7,0.2,0.9,0.3
					c0.3,0.2,0.5,0.4,0.7,0.7c0.2,0.3,0.3,0.6,0.3,1.1v4c0,0.3,0,0.5,0.1,0.7c0,0.1,0.2,0.2,0.4,0.2c0.1,0,0.2,0,0.4-0.1v1
					C277.5,18.7,277.2,18.8,276.8,18.8z M275,14.9c-0.3,0.1-0.5,0.1-0.8,0.1s-0.6,0.1-0.9,0.1s-0.5,0.1-0.8,0.2
					c-0.2,0.1-0.4,0.2-0.6,0.4c-0.1,0.2-0.2,0.4-0.2,0.8c0,0.2,0,0.4,0.1,0.5c0.1,0.1,0.2,0.3,0.3,0.4s0.3,0.2,0.5,0.2
					c0.2,0,0.4,0.1,0.6,0.1c0.4,0,0.8-0.1,1.1-0.2s0.5-0.3,0.7-0.4c0.2-0.2,0.3-0.4,0.4-0.6s0.1-0.4,0.1-0.6v-1.3
					C275.5,14.7,275.3,14.8,275,14.9z"/>
				<path fill="#221F1F" d="M282.2,10.9V12h-1.5v4.8c0,0.2,0,0.3,0,0.4c0,0.1,0.1,0.2,0.1,0.2c0.1,0,0.2,0.1,0.3,0.1s0.3,0,0.5,0
					h0.6v1.1h-1c-0.3,0-0.6,0-0.8-0.1c-0.2,0-0.4-0.1-0.6-0.2c-0.1-0.1-0.3-0.3-0.3-0.5c-0.1-0.2-0.1-0.5-0.1-0.9V12h-1.3v-1.1h1.3
					V8.5h1.3v2.3H282.2z"/>
				<path fill="#221F1F" d="M288.2,12.2c-0.3-0.3-0.8-0.4-1.3-0.4c-0.5,0-0.8,0.1-1.2,0.3c-0.3,0.2-0.6,0.4-0.7,0.7
					c-0.2,0.3-0.3,0.6-0.4,1s-0.1,0.7-0.1,1.1c0,0.4,0,0.7,0.1,1c0.1,0.3,0.2,0.6,0.4,0.9s0.4,0.5,0.7,0.6c0.3,0.2,0.6,0.2,1,0.2
					c0.6,0,1.1-0.2,1.5-0.5c0.4-0.3,0.6-0.8,0.7-1.4h1.3c-0.1,1-0.5,1.7-1.1,2.2c-0.6,0.5-1.4,0.8-2.3,0.8c-0.6,0-1.1-0.1-1.6-0.3
					c-0.5-0.2-0.8-0.5-1.1-0.8c-0.3-0.4-0.5-0.8-0.7-1.3c-0.2-0.5-0.2-1-0.2-1.6c0-0.6,0.1-1.1,0.2-1.6c0.2-0.5,0.4-0.9,0.7-1.3
					s0.7-0.7,1.1-0.9s1-0.3,1.6-0.3c0.4,0,0.9,0.1,1.2,0.2c0.4,0.1,0.7,0.3,1,0.5s0.5,0.5,0.7,0.8c0.2,0.3,0.3,0.7,0.4,1.2h-1.3
					C288.8,12.9,288.6,12.5,288.2,12.2z"/>
				<path fill="#221F1F" d="M292.9,7.9V12h0c0.1-0.2,0.2-0.4,0.4-0.6c0.2-0.2,0.4-0.3,0.6-0.4c0.2-0.1,0.5-0.2,0.7-0.2
					c0.2,0,0.5-0.1,0.7-0.1c0.5,0,0.9,0.1,1.3,0.2c0.3,0.1,0.6,0.3,0.8,0.6s0.4,0.5,0.4,0.9c0.1,0.3,0.1,0.7,0.1,1.1v5.1h-1.3v-5.2
					c0-0.5-0.1-0.9-0.4-1.1c-0.3-0.3-0.7-0.4-1.2-0.4c-0.4,0-0.7,0.1-1,0.2s-0.5,0.3-0.7,0.5c-0.2,0.2-0.3,0.5-0.4,0.8
					c-0.1,0.3-0.1,0.6-0.1,1v4.4h-1.3V7.9H292.9z"/>
				<path fill="#221F1F" d="M32.3,31.2c0.2-0.5,0.4-0.9,0.7-1.3c0.3-0.4,0.7-0.7,1.2-0.9c0.5-0.2,1-0.3,1.6-0.3
					c0.6,0,1.2,0.1,1.6,0.3s0.9,0.5,1.2,0.9c0.3,0.4,0.6,0.8,0.7,1.3s0.2,1,0.2,1.6s-0.1,1.1-0.2,1.6c-0.2,0.5-0.4,0.9-0.7,1.3
					c-0.3,0.4-0.7,0.6-1.2,0.9s-1,0.3-1.6,0.3c-0.6,0-1.1-0.1-1.6-0.3c-0.5-0.2-0.9-0.5-1.2-0.9c-0.3-0.4-0.6-0.8-0.7-1.3
					c-0.2-0.5-0.2-1-0.2-1.6S32.1,31.6,32.3,31.2z M33.6,34c0.1,0.4,0.3,0.7,0.5,0.9s0.5,0.4,0.8,0.6s0.6,0.2,0.9,0.2
					s0.6-0.1,0.9-0.2s0.6-0.3,0.8-0.6s0.4-0.5,0.5-0.9s0.2-0.8,0.2-1.3c0-0.5-0.1-0.9-0.2-1.3c-0.1-0.4-0.3-0.7-0.5-0.9
					s-0.5-0.4-0.8-0.6s-0.6-0.2-0.9-0.2s-0.6,0.1-0.9,0.2s-0.6,0.3-0.8,0.6s-0.4,0.6-0.5,0.9c-0.1,0.4-0.2,0.8-0.2,1.3
					C33.4,33.2,33.5,33.6,33.6,34z"/>
				<path fill="#221F1F" d="M42.2,28.9v1.6h0c0.3-0.6,0.7-1.1,1.1-1.4c0.5-0.3,1-0.4,1.7-0.4V30c-0.5,0-0.9,0.1-1.3,0.2
					c-0.4,0.1-0.7,0.3-0.9,0.6c-0.2,0.3-0.4,0.6-0.5,1s-0.1,0.8-0.1,1.3v3.5H41v-7.8H42.2z"/>
				<path fill="#221F1F" d="M55.9,36.6v-1h0c-0.2,0.4-0.5,0.7-1,0.9c-0.5,0.2-0.9,0.3-1.5,0.3c-0.6,0-1.1-0.1-1.6-0.3
					c-0.4-0.2-0.8-0.5-1.1-0.9s-0.5-0.8-0.7-1.3c-0.1-0.5-0.2-1-0.2-1.6c0-0.5,0.1-1.1,0.2-1.6c0.1-0.5,0.4-0.9,0.7-1.3
					c0.3-0.4,0.7-0.7,1.1-0.9s1-0.3,1.6-0.3c0.2,0,0.4,0,0.6,0.1c0.2,0,0.5,0.1,0.7,0.2c0.2,0.1,0.4,0.2,0.7,0.4
					c0.2,0.2,0.4,0.3,0.5,0.6h0v-4h1.3v10.7H55.9z M51.3,33.9c0.1,0.3,0.2,0.7,0.4,0.9c0.2,0.3,0.4,0.5,0.8,0.6
					c0.3,0.2,0.7,0.2,1.1,0.2c0.4,0,0.8-0.1,1.1-0.3s0.5-0.4,0.7-0.7c0.2-0.3,0.3-0.6,0.4-0.9c0.1-0.4,0.1-0.7,0.1-1.1
					c0-0.4,0-0.7-0.1-1.1c-0.1-0.4-0.2-0.7-0.4-0.9c-0.2-0.3-0.4-0.5-0.8-0.7s-0.7-0.2-1.1-0.2c-0.4,0-0.8,0.1-1.1,0.3
					s-0.5,0.4-0.7,0.7c-0.2,0.3-0.3,0.6-0.4,1s-0.1,0.7-0.1,1.1C51.2,33.2,51.2,33.5,51.3,33.9z"/>
				<path fill="#221F1F" d="M59,31.2c0.2-0.5,0.4-0.9,0.7-1.3c0.3-0.4,0.7-0.7,1.2-0.9c0.5-0.2,1-0.3,1.6-0.3c0.6,0,1.2,0.1,1.6,0.3
					s0.9,0.5,1.2,0.9c0.3,0.4,0.6,0.8,0.7,1.3s0.2,1,0.2,1.6s-0.1,1.1-0.2,1.6c-0.2,0.5-0.4,0.9-0.7,1.3c-0.3,0.4-0.7,0.6-1.2,0.9
					s-1,0.3-1.6,0.3c-0.6,0-1.1-0.1-1.6-0.3c-0.5-0.2-0.9-0.5-1.2-0.9c-0.3-0.4-0.6-0.8-0.7-1.3c-0.2-0.5-0.2-1-0.2-1.6
					S58.8,31.6,59,31.2z M60.3,34c0.1,0.4,0.3,0.7,0.5,0.9s0.5,0.4,0.8,0.6s0.6,0.2,0.9,0.2s0.6-0.1,0.9-0.2s0.6-0.3,0.8-0.6
					s0.4-0.5,0.5-0.9s0.2-0.8,0.2-1.3c0-0.5-0.1-0.9-0.2-1.3c-0.1-0.4-0.3-0.7-0.5-0.9s-0.5-0.4-0.8-0.6s-0.6-0.2-0.9-0.2
					s-0.6,0.1-0.9,0.2s-0.6,0.3-0.8,0.6s-0.4,0.6-0.5,0.9c-0.1,0.4-0.2,0.8-0.2,1.3C60.1,33.2,60.1,33.6,60.3,34z"/>
				<path fill="#221F1F" d="M74.1,36.6l-1.6-6.2h0l-1.6,6.2h-1.4l-2.5-7.8h1.4l1.8,6.3h0l1.6-6.3h1.4l1.6,6.3h0l1.7-6.3h1.3
					l-2.5,7.8H74.1z"/>
				<path fill="#221F1F" d="M80.3,28.9v1.2h0c0.5-0.9,1.4-1.4,2.5-1.4c0.5,0,0.9,0.1,1.3,0.2c0.3,0.1,0.6,0.3,0.8,0.6
					s0.4,0.5,0.4,0.9c0.1,0.3,0.1,0.7,0.1,1.1v5.1h-1.3v-5.2c0-0.5-0.1-0.9-0.4-1.1c-0.3-0.3-0.7-0.4-1.2-0.4c-0.4,0-0.7,0.1-1,0.2
					s-0.5,0.3-0.7,0.5c-0.2,0.2-0.3,0.5-0.4,0.8c-0.1,0.3-0.1,0.6-0.1,1v4.4h-1.3v-7.8H80.3z"/>
				<path fill="#221F1F" d="M88.8,25.9v10.7h-1.3V25.9H88.8z"/>
				<path fill="#221F1F" d="M90.6,31.2c0.2-0.5,0.4-0.9,0.7-1.3c0.3-0.4,0.7-0.7,1.2-0.9c0.5-0.2,1-0.3,1.6-0.3
					c0.6,0,1.2,0.1,1.6,0.3s0.9,0.5,1.2,0.9c0.3,0.4,0.6,0.8,0.7,1.3s0.2,1,0.2,1.6s-0.1,1.1-0.2,1.6c-0.2,0.5-0.4,0.9-0.7,1.3
					c-0.3,0.4-0.7,0.6-1.2,0.9s-1,0.3-1.6,0.3c-0.6,0-1.1-0.1-1.6-0.3c-0.5-0.2-0.9-0.5-1.2-0.9c-0.3-0.4-0.6-0.8-0.7-1.3
					c-0.2-0.5-0.2-1-0.2-1.6S90.5,31.6,90.6,31.2z M91.9,34c0.1,0.4,0.3,0.7,0.5,0.9s0.5,0.4,0.8,0.6s0.6,0.2,0.9,0.2
					s0.6-0.1,0.9-0.2s0.6-0.3,0.8-0.6s0.4-0.5,0.5-0.9s0.2-0.8,0.2-1.3c0-0.5-0.1-0.9-0.2-1.3c-0.1-0.4-0.3-0.7-0.5-0.9
					s-0.5-0.4-0.8-0.6s-0.6-0.2-0.9-0.2s-0.6,0.1-0.9,0.2s-0.6,0.3-0.8,0.6s-0.4,0.6-0.5,0.9c-0.1,0.4-0.2,0.8-0.2,1.3
					C91.7,33.2,91.8,33.6,91.9,34z"/>
				<path fill="#221F1F" d="M105.4,36.8c-0.3,0-0.6-0.1-0.8-0.3c-0.2-0.2-0.3-0.5-0.3-0.9c-0.4,0.4-0.8,0.7-1.2,0.9
					c-0.5,0.2-1,0.3-1.5,0.3c-0.4,0-0.7,0-1-0.1c-0.3-0.1-0.6-0.2-0.8-0.4c-0.2-0.2-0.4-0.4-0.6-0.7c-0.1-0.3-0.2-0.6-0.2-1
					c0-0.4,0.1-0.8,0.2-1.1c0.2-0.3,0.3-0.5,0.6-0.7c0.2-0.2,0.5-0.3,0.8-0.4c0.3-0.1,0.6-0.2,1-0.2c0.3-0.1,0.7-0.1,1-0.2
					c0.3,0,0.6-0.1,0.8-0.2c0.2-0.1,0.4-0.2,0.6-0.3c0.1-0.1,0.2-0.3,0.2-0.5c0-0.3-0.1-0.5-0.2-0.7c-0.1-0.2-0.2-0.3-0.4-0.4
					s-0.4-0.2-0.6-0.2c-0.2,0-0.4,0-0.6,0c-0.5,0-1,0.1-1.3,0.3c-0.4,0.2-0.6,0.6-0.6,1.2h-1.3c0-0.5,0.1-0.9,0.3-1.2
					c0.2-0.3,0.4-0.6,0.7-0.8c0.3-0.2,0.6-0.4,1-0.4c0.4-0.1,0.8-0.1,1.2-0.1c0.3,0,0.7,0,1,0.1c0.3,0.1,0.7,0.2,0.9,0.3
					c0.3,0.2,0.5,0.4,0.7,0.7c0.2,0.3,0.3,0.6,0.3,1.1v4c0,0.3,0,0.5,0.1,0.7c0,0.1,0.2,0.2,0.4,0.2c0.1,0,0.2,0,0.4-0.1v1
					C106.1,36.7,105.8,36.8,105.4,36.8z M103.6,32.9c-0.3,0.1-0.5,0.1-0.8,0.1s-0.6,0.1-0.9,0.1s-0.5,0.1-0.8,0.2
					c-0.2,0.1-0.4,0.2-0.6,0.4c-0.1,0.2-0.2,0.4-0.2,0.8c0,0.2,0,0.4,0.1,0.5c0.1,0.1,0.2,0.3,0.3,0.4s0.3,0.2,0.5,0.2
					c0.2,0,0.4,0.1,0.6,0.1c0.4,0,0.8-0.1,1.1-0.2s0.5-0.3,0.7-0.4c0.2-0.2,0.3-0.4,0.4-0.6s0.1-0.4,0.1-0.6v-1.3
					C104,32.7,103.8,32.8,103.6,32.9z"/>
				<path fill="#221F1F" d="M113.1,36.6v-1h0c-0.2,0.4-0.5,0.7-1,0.9c-0.5,0.2-0.9,0.3-1.5,0.3c-0.6,0-1.1-0.1-1.6-0.3
					c-0.4-0.2-0.8-0.5-1.1-0.9s-0.5-0.8-0.7-1.3c-0.1-0.5-0.2-1-0.2-1.6c0-0.5,0.1-1.1,0.2-1.6c0.1-0.5,0.4-0.9,0.7-1.3
					c0.3-0.4,0.7-0.7,1.1-0.9s1-0.3,1.6-0.3c0.2,0,0.4,0,0.6,0.1c0.2,0,0.5,0.1,0.7,0.2c0.2,0.1,0.4,0.2,0.7,0.4
					c0.2,0.2,0.4,0.3,0.5,0.6h0v-4h1.3v10.7H113.1z M108.5,33.9c0.1,0.3,0.2,0.7,0.4,0.9c0.2,0.3,0.4,0.5,0.8,0.6
					c0.3,0.2,0.7,0.2,1.1,0.2c0.4,0,0.8-0.1,1.1-0.3s0.5-0.4,0.7-0.7c0.2-0.3,0.3-0.6,0.4-0.9c0.1-0.4,0.1-0.7,0.1-1.1
					c0-0.4,0-0.7-0.1-1.1c-0.1-0.4-0.2-0.7-0.4-0.9c-0.2-0.3-0.4-0.5-0.8-0.7s-0.7-0.2-1.1-0.2c-0.4,0-0.8,0.1-1.1,0.3
					s-0.5,0.4-0.7,0.7c-0.2,0.3-0.3,0.6-0.4,1s-0.1,0.7-0.1,1.1C108.4,33.2,108.4,33.5,108.5,33.9z"/>
				<path fill="#221F1F" d="M120.6,27.5v-1.6h1.3v1.6H120.6z M121.9,28.9v7.8h-1.3v-7.8H121.9z"/>
				<path fill="#221F1F" d="M127.2,28.9V30h-1.5v4.8c0,0.2,0,0.3,0,0.4c0,0.1,0.1,0.2,0.1,0.2c0.1,0,0.2,0.1,0.3,0.1s0.3,0,0.5,0
					h0.6v1.1h-1c-0.3,0-0.6,0-0.8-0.1c-0.2,0-0.4-0.1-0.6-0.2c-0.1-0.1-0.3-0.3-0.3-0.5c-0.1-0.2-0.1-0.5-0.1-0.9V30H123v-1.1h1.3
					v-2.3h1.3v2.3H127.2z"/>
				<path fill="#221F1F" d="M134,28.9v1.2h0c0.5-0.9,1.4-1.4,2.5-1.4c0.5,0,0.9,0.1,1.3,0.2c0.3,0.1,0.6,0.3,0.8,0.6
					s0.4,0.5,0.4,0.9c0.1,0.3,0.1,0.7,0.1,1.1v5.1h-1.3v-5.2c0-0.5-0.1-0.9-0.4-1.1c-0.3-0.3-0.7-0.4-1.2-0.4c-0.4,0-0.7,0.1-1,0.2
					s-0.5,0.3-0.7,0.5c-0.2,0.2-0.3,0.5-0.4,0.8c-0.1,0.3-0.1,0.6-0.1,1v4.4h-1.3v-7.8H134z"/>
				<path fill="#221F1F" d="M140.9,31.2c0.2-0.5,0.4-0.9,0.7-1.3c0.3-0.4,0.7-0.7,1.2-0.9c0.5-0.2,1-0.3,1.6-0.3
					c0.6,0,1.2,0.1,1.6,0.3s0.9,0.5,1.2,0.9c0.3,0.4,0.6,0.8,0.7,1.3s0.2,1,0.2,1.6s-0.1,1.1-0.2,1.6c-0.2,0.5-0.4,0.9-0.7,1.3
					c-0.3,0.4-0.7,0.6-1.2,0.9s-1,0.3-1.6,0.3c-0.6,0-1.1-0.1-1.6-0.3c-0.5-0.2-0.9-0.5-1.2-0.9c-0.3-0.4-0.6-0.8-0.7-1.3
					c-0.2-0.5-0.2-1-0.2-1.6S140.8,31.6,140.9,31.2z M142.2,34c0.1,0.4,0.3,0.7,0.5,0.9s0.5,0.4,0.8,0.6s0.6,0.2,0.9,0.2
					s0.6-0.1,0.9-0.2s0.6-0.3,0.8-0.6s0.4-0.5,0.5-0.9s0.2-0.8,0.2-1.3c0-0.5-0.1-0.9-0.2-1.3c-0.1-0.4-0.3-0.7-0.5-0.9
					s-0.5-0.4-0.8-0.6s-0.6-0.2-0.9-0.2s-0.6,0.1-0.9,0.2s-0.6,0.3-0.8,0.6s-0.4,0.6-0.5,0.9c-0.1,0.4-0.2,0.8-0.2,1.3
					C142,33.2,142.1,33.6,142.2,34z"/>
				<path fill="#221F1F" d="M156,36.6l-1.6-6.2h0l-1.6,6.2h-1.4l-2.5-7.8h1.4l1.8,6.3h0l1.6-6.3h1.4l1.6,6.3h0l1.7-6.3h1.3l-2.5,7.8
					H156z"/>
				<path fill="#221F1F" d="M161.2,27.8c0.2-0.4,0.4-0.8,0.7-1.1s0.6-0.6,1.1-0.8c0.4-0.2,0.9-0.3,1.4-0.3c0.5,0,0.9,0.1,1.3,0.2
					c0.4,0.1,0.7,0.3,1,0.6s0.5,0.6,0.7,0.9c0.2,0.4,0.2,0.8,0.2,1.3c0,0.3,0,0.6-0.1,0.8c-0.1,0.2-0.2,0.5-0.3,0.7
					s-0.3,0.4-0.4,0.6s-0.3,0.3-0.5,0.5c-0.2,0.2-0.3,0.3-0.5,0.5c-0.2,0.2-0.3,0.3-0.4,0.5c-0.1,0.2-0.2,0.4-0.3,0.6
					c-0.1,0.2-0.1,0.4-0.1,0.7V34h-1.3v-0.7c0-0.4,0.1-0.8,0.2-1.1c0.1-0.3,0.3-0.6,0.5-0.8c0.2-0.2,0.4-0.4,0.6-0.6
					s0.4-0.4,0.6-0.6c0.2-0.2,0.3-0.5,0.4-0.7c0.1-0.3,0.2-0.6,0.1-0.9c0-0.5-0.2-1-0.5-1.3c-0.3-0.3-0.7-0.5-1.3-0.5
					c-0.4,0-0.7,0.1-0.9,0.2s-0.5,0.3-0.7,0.5s-0.3,0.5-0.4,0.8s-0.1,0.6-0.1,1h-1.3C160.9,28.7,161,28.3,161.2,27.8z M165,35v1.7
					h-1.7V35H165z"/>
				<path fill="#808284" d="M40.1,46.9v1.2h-6v3.4h5.6v1.2h-5.6v3.7h6v1.2h-7.4V46.9H40.1z"/>
				<path fill="#808284" d="M43,49.9v1h0c0.2-0.4,0.5-0.7,1-0.9s0.9-0.3,1.5-0.3c0.6,0,1.1,0.1,1.6,0.3c0.4,0.2,0.8,0.5,1.1,0.9
					c0.3,0.4,0.5,0.8,0.7,1.3c0.2,0.5,0.2,1,0.2,1.6c0,0.6-0.1,1.1-0.2,1.6c-0.1,0.5-0.4,0.9-0.7,1.3c-0.3,0.4-0.7,0.7-1.1,0.9
					c-0.4,0.2-1,0.3-1.6,0.3c-0.2,0-0.4,0-0.6-0.1c-0.2,0-0.5-0.1-0.7-0.2c-0.2-0.1-0.4-0.2-0.7-0.4c-0.2-0.2-0.4-0.3-0.5-0.6h0v4
					h-1.3V49.9H43z M47.5,52.6c-0.1-0.3-0.2-0.7-0.4-0.9c-0.2-0.3-0.4-0.5-0.8-0.6c-0.3-0.2-0.7-0.2-1.1-0.2c-0.4,0-0.8,0.1-1.1,0.3
					s-0.5,0.4-0.7,0.7c-0.2,0.3-0.3,0.6-0.4,0.9c-0.1,0.4-0.1,0.7-0.1,1.1c0,0.4,0,0.7,0.1,1.1c0.1,0.4,0.2,0.7,0.4,0.9
					c0.2,0.3,0.4,0.5,0.8,0.7c0.3,0.2,0.7,0.2,1.1,0.2c0.4,0,0.8-0.1,1.1-0.3s0.5-0.4,0.7-0.7s0.3-0.6,0.4-1s0.1-0.7,0.1-1.1
					C47.7,53.3,47.6,53,47.5,52.6z"/>
				<path fill="#808284" d="M50.6,48.5v-1.6h1.3v1.6H50.6z M51.9,49.9v7.8h-1.3v-7.8H51.9z"/>
				<path fill="#808284" d="M54.8,55.9c0.1,0.2,0.3,0.3,0.5,0.5c0.2,0.1,0.4,0.2,0.7,0.2c0.2,0,0.5,0.1,0.8,0.1c0.2,0,0.4,0,0.6,0
					c0.2,0,0.4-0.1,0.6-0.2c0.2-0.1,0.3-0.2,0.5-0.4c0.1-0.2,0.2-0.4,0.2-0.6c0-0.3-0.1-0.6-0.4-0.8s-0.6-0.3-0.9-0.4
					c-0.4-0.1-0.8-0.2-1.2-0.3c-0.4-0.1-0.8-0.2-1.2-0.4s-0.7-0.4-0.9-0.7c-0.2-0.3-0.4-0.7-0.4-1.2c0-0.4,0.1-0.7,0.3-1
					c0.2-0.3,0.4-0.5,0.7-0.7c0.3-0.2,0.6-0.3,0.9-0.4c0.3-0.1,0.7-0.1,1-0.1c0.4,0,0.8,0,1.2,0.1c0.4,0.1,0.7,0.2,1,0.4
					c0.3,0.2,0.5,0.4,0.7,0.8c0.2,0.3,0.3,0.7,0.3,1.2h-1.3c0-0.2-0.1-0.5-0.2-0.6c-0.1-0.2-0.2-0.3-0.4-0.4
					c-0.2-0.1-0.4-0.2-0.6-0.2c-0.2,0-0.4-0.1-0.6-0.1c-0.2,0-0.4,0-0.6,0c-0.2,0-0.4,0.1-0.5,0.2c-0.2,0.1-0.3,0.2-0.4,0.3
					s-0.1,0.3-0.1,0.5c0,0.2,0.1,0.4,0.2,0.5c0.2,0.1,0.4,0.3,0.6,0.4c0.2,0.1,0.5,0.2,0.8,0.2c0.3,0.1,0.6,0.1,0.9,0.2
					c0.3,0.1,0.6,0.2,0.9,0.3c0.3,0.1,0.6,0.2,0.8,0.4c0.2,0.2,0.4,0.4,0.6,0.6c0.1,0.2,0.2,0.6,0.2,0.9c0,0.5-0.1,0.9-0.3,1.2
					c-0.2,0.3-0.5,0.6-0.8,0.8c-0.3,0.2-0.7,0.3-1.1,0.4c-0.4,0.1-0.8,0.1-1.2,0.1c-0.4,0-0.8,0-1.2-0.1c-0.4-0.1-0.7-0.2-1-0.4
					c-0.3-0.2-0.5-0.5-0.7-0.8c-0.2-0.3-0.3-0.7-0.3-1.2h1.3C54.7,55.5,54.7,55.7,54.8,55.9z"/>
				<path fill="#808284" d="M61.2,52.2c0.2-0.5,0.4-0.9,0.7-1.3c0.3-0.4,0.7-0.7,1.2-0.9c0.5-0.2,1-0.3,1.6-0.3
					c0.6,0,1.2,0.1,1.6,0.3s0.9,0.5,1.2,0.9c0.3,0.4,0.6,0.8,0.7,1.3s0.2,1,0.2,1.6s-0.1,1.1-0.2,1.6c-0.2,0.5-0.4,0.9-0.7,1.3
					c-0.3,0.4-0.7,0.6-1.2,0.9s-1,0.3-1.6,0.3c-0.6,0-1.1-0.1-1.6-0.3c-0.5-0.2-0.9-0.5-1.2-0.9c-0.3-0.4-0.6-0.8-0.7-1.3
					c-0.2-0.5-0.2-1-0.2-1.6S61,52.6,61.2,52.2z M62.5,55c0.1,0.4,0.3,0.7,0.5,0.9s0.5,0.4,0.8,0.6s0.6,0.2,0.9,0.2s0.6-0.1,0.9-0.2
					s0.6-0.3,0.8-0.6s0.4-0.5,0.5-0.9s0.2-0.8,0.2-1.3c0-0.5-0.1-0.9-0.2-1.3c-0.1-0.4-0.3-0.7-0.5-0.9s-0.5-0.4-0.8-0.6
					s-0.6-0.2-0.9-0.2s-0.6,0.1-0.9,0.2s-0.6,0.3-0.8,0.6s-0.4,0.6-0.5,0.9c-0.1,0.4-0.2,0.8-0.2,1.3C62.3,54.2,62.4,54.6,62.5,55z"
					/>
				<path fill="#808284" d="M75.6,57.6v-1h0c-0.2,0.4-0.5,0.7-1,0.9c-0.5,0.2-0.9,0.3-1.5,0.3c-0.6,0-1.1-0.1-1.6-0.3
					c-0.4-0.2-0.8-0.5-1.1-0.9s-0.5-0.8-0.7-1.3c-0.1-0.5-0.2-1-0.2-1.6c0-0.5,0.1-1.1,0.2-1.6c0.1-0.5,0.4-0.9,0.7-1.3
					c0.3-0.4,0.7-0.7,1.1-0.9s1-0.3,1.6-0.3c0.2,0,0.4,0,0.6,0.1c0.2,0,0.5,0.1,0.7,0.2c0.2,0.1,0.4,0.2,0.7,0.4
					c0.2,0.2,0.4,0.3,0.5,0.6h0v-4h1.3v10.7H75.6z M71.1,54.9c0.1,0.3,0.2,0.7,0.4,0.9c0.2,0.3,0.4,0.5,0.8,0.6
					c0.3,0.2,0.7,0.2,1.1,0.2c0.4,0,0.8-0.1,1.1-0.3s0.5-0.4,0.7-0.7c0.2-0.3,0.3-0.6,0.4-0.9c0.1-0.4,0.1-0.7,0.1-1.1
					c0-0.4,0-0.7-0.1-1.1c-0.1-0.4-0.2-0.7-0.4-0.9c-0.2-0.3-0.4-0.5-0.8-0.7s-0.7-0.2-1.1-0.2c-0.4,0-0.8,0.1-1.1,0.3
					s-0.5,0.4-0.7,0.7c-0.2,0.3-0.3,0.6-0.4,1s-0.1,0.7-0.1,1.1C70.9,54.2,71,54.5,71.1,54.9z"/>
				<path fill="#808284" d="M84.4,57.1c-0.6,0.4-1.3,0.7-2.2,0.7c-0.6,0-1.2-0.1-1.6-0.3c-0.5-0.2-0.8-0.5-1.1-0.8
					c-0.3-0.4-0.5-0.8-0.7-1.3c-0.2-0.5-0.2-1-0.3-1.6c0-0.6,0.1-1.1,0.3-1.6c0.2-0.5,0.4-0.9,0.8-1.3s0.7-0.6,1.2-0.8
					c0.4-0.2,0.9-0.3,1.5-0.3c0.7,0,1.3,0.1,1.7,0.4s0.8,0.6,1.1,1.1c0.3,0.4,0.5,0.9,0.6,1.4c0.1,0.5,0.1,1,0.1,1.5h-5.8
					c0,0.3,0,0.7,0.1,1s0.2,0.6,0.4,0.8c0.2,0.2,0.5,0.4,0.8,0.6c0.3,0.1,0.7,0.2,1.1,0.2c0.5,0,1-0.1,1.3-0.4
					c0.3-0.2,0.6-0.6,0.7-1.1h1.3C85.3,56,84.9,56.7,84.4,57.1z M84.1,52.1c-0.1-0.3-0.3-0.5-0.5-0.7c-0.2-0.2-0.4-0.3-0.7-0.5
					c-0.3-0.1-0.6-0.2-0.9-0.2c-0.3,0-0.6,0.1-0.9,0.2c-0.3,0.1-0.5,0.3-0.7,0.5c-0.2,0.2-0.3,0.4-0.5,0.7c-0.1,0.3-0.2,0.5-0.2,0.8
					h4.5C84.2,52.7,84.2,52.4,84.1,52.1z"/>
				<path fill="#808284" d="M95.8,48.5c-0.3-0.3-0.7-0.4-1.2-0.4c-0.5,0-1,0.1-1.3,0.4s-0.6,0.6-0.8,1c-0.2,0.4-0.3,0.8-0.4,1.3
					S92,51.7,92,52.1l0,0c0.3-0.5,0.7-0.8,1.1-1.1c0.4-0.2,1-0.3,1.5-0.3c0.5,0,1,0.1,1.4,0.3s0.7,0.4,1,0.7
					c0.3,0.3,0.5,0.7,0.6,1.1c0.2,0.4,0.2,0.9,0.2,1.4c0,0.4-0.1,0.8-0.2,1.2c-0.1,0.4-0.3,0.8-0.6,1.1c-0.3,0.3-0.6,0.6-1.1,0.9
					c-0.5,0.2-1,0.3-1.7,0.3c-0.8,0-1.4-0.2-1.9-0.5c-0.5-0.3-0.9-0.7-1.1-1.2s-0.4-1-0.5-1.7c-0.1-0.6-0.1-1.2-0.1-1.7
					c0-0.7,0.1-1.4,0.2-2.1c0.1-0.7,0.3-1.3,0.6-1.8c0.3-0.5,0.7-1,1.2-1.3c0.5-0.3,1.1-0.5,1.9-0.5c0.9,0,1.6,0.2,2.1,0.7
					c0.5,0.5,0.8,1.1,0.9,2h-1.3C96.3,49.2,96.1,48.8,95.8,48.5z M93.5,52.1c-0.3,0.1-0.5,0.3-0.7,0.5c-0.2,0.2-0.3,0.5-0.4,0.8
					c-0.1,0.3-0.1,0.6-0.1,0.9c0,0.3,0,0.6,0.2,0.9c0.1,0.3,0.2,0.5,0.4,0.8c0.2,0.2,0.4,0.4,0.7,0.5c0.3,0.1,0.6,0.2,0.9,0.2
					c0.3,0,0.7-0.1,0.9-0.2c0.3-0.1,0.5-0.3,0.7-0.5c0.2-0.2,0.3-0.5,0.4-0.8c0.1-0.3,0.1-0.6,0.1-0.9c0-0.3,0-0.6-0.1-0.9
					s-0.2-0.5-0.4-0.8c-0.2-0.2-0.4-0.4-0.7-0.5c-0.3-0.1-0.6-0.2-0.9-0.2S93.8,52,93.5,52.1z"/>
				<path fill="#808284" d="M104.8,45.8v15h-1v-15H104.8z"/>
				<path fill="#808284" d="M113.6,51.6c0,0,0.1,0,0.1,0h0.3c0.3,0,0.5,0,0.8-0.1c0.2-0.1,0.5-0.2,0.6-0.3c0.2-0.1,0.3-0.3,0.4-0.5
					c0.1-0.2,0.2-0.5,0.2-0.8c0-0.6-0.2-1-0.5-1.3c-0.4-0.3-0.8-0.4-1.3-0.4c-0.3,0-0.6,0.1-0.9,0.2s-0.5,0.3-0.6,0.5
					s-0.3,0.5-0.4,0.7s-0.1,0.6-0.1,0.9h-1.3c0-0.5,0.1-1,0.2-1.4c0.1-0.4,0.4-0.8,0.6-1.1c0.3-0.3,0.6-0.5,1-0.7s0.9-0.3,1.4-0.3
					c0.5,0,0.9,0.1,1.3,0.2c0.4,0.1,0.7,0.3,1,0.5c0.3,0.2,0.5,0.5,0.7,0.9c0.2,0.4,0.2,0.8,0.2,1.3c0,0.5-0.1,0.9-0.4,1.3
					c-0.3,0.4-0.6,0.7-1,0.8v0c0.6,0.1,1.1,0.4,1.4,0.9c0.3,0.5,0.5,1,0.5,1.7c0,0.5-0.1,1-0.3,1.4c-0.2,0.4-0.5,0.7-0.8,1
					c-0.3,0.3-0.7,0.5-1.2,0.6c-0.4,0.1-0.9,0.2-1.4,0.2c-0.5,0-1-0.1-1.5-0.2c-0.4-0.2-0.8-0.4-1.1-0.7c-0.3-0.3-0.5-0.7-0.7-1.1
					c-0.2-0.4-0.2-0.9-0.2-1.5h1.3c0,0.7,0.2,1.3,0.6,1.7c0.4,0.4,0.9,0.7,1.7,0.7c0.3,0,0.6,0,0.9-0.1c0.3-0.1,0.5-0.2,0.7-0.4
					s0.4-0.4,0.5-0.6s0.2-0.5,0.2-0.9c0-0.3-0.1-0.6-0.2-0.9c-0.1-0.3-0.3-0.5-0.5-0.6s-0.4-0.3-0.7-0.4c-0.3-0.1-0.6-0.1-0.9-0.1
					c-0.3,0-0.5,0-0.8,0v-1.1C113.5,51.6,113.5,51.6,113.6,51.6z"/>
				<path fill="#808284" d="M124.9,46.9V51h0c0.1-0.2,0.2-0.4,0.4-0.6c0.2-0.2,0.4-0.3,0.6-0.4c0.2-0.1,0.5-0.2,0.7-0.2
					c0.2,0,0.5-0.1,0.7-0.1c0.5,0,0.9,0.1,1.3,0.2c0.3,0.1,0.6,0.3,0.8,0.6s0.4,0.5,0.4,0.9c0.1,0.3,0.1,0.7,0.1,1.1v5.1h-1.3v-5.2
					c0-0.5-0.1-0.9-0.4-1.1c-0.3-0.3-0.7-0.4-1.2-0.4c-0.4,0-0.7,0.1-1,0.2s-0.5,0.3-0.7,0.5c-0.2,0.2-0.3,0.5-0.4,0.8
					c-0.1,0.3-0.1,0.6-0.1,1v4.4h-1.3V46.9H124.9z"/>
				<path fill="#808284" d="M131.8,52.2c0.2-0.5,0.4-0.9,0.7-1.3c0.3-0.4,0.7-0.7,1.2-0.9c0.5-0.2,1-0.3,1.6-0.3
					c0.6,0,1.2,0.1,1.6,0.3s0.9,0.5,1.2,0.9c0.3,0.4,0.6,0.8,0.7,1.3s0.2,1,0.2,1.6s-0.1,1.1-0.2,1.6c-0.2,0.5-0.4,0.9-0.7,1.3
					c-0.3,0.4-0.7,0.6-1.2,0.9s-1,0.3-1.6,0.3c-0.6,0-1.1-0.1-1.6-0.3c-0.5-0.2-0.9-0.5-1.2-0.9c-0.3-0.4-0.6-0.8-0.7-1.3
					c-0.2-0.5-0.2-1-0.2-1.6S131.6,52.6,131.8,52.2z M133.1,55c0.1,0.4,0.3,0.7,0.5,0.9s0.5,0.4,0.8,0.6s0.6,0.2,0.9,0.2
					s0.6-0.1,0.9-0.2s0.6-0.3,0.8-0.6s0.4-0.5,0.5-0.9s0.2-0.8,0.2-1.3c0-0.5-0.1-0.9-0.2-1.3c-0.1-0.4-0.3-0.7-0.5-0.9
					s-0.5-0.4-0.8-0.6s-0.6-0.2-0.9-0.2s-0.6,0.1-0.9,0.2s-0.6,0.3-0.8,0.6s-0.4,0.6-0.5,0.9c-0.1,0.4-0.2,0.8-0.2,1.3
					C132.9,54.2,132.9,54.6,133.1,55z"/>
				<path fill="#808284" d="M145.8,57.6v-1.2h0c-0.3,0.5-0.6,0.8-1,1.1c-0.4,0.2-0.9,0.3-1.5,0.3c-0.5,0-0.9-0.1-1.3-0.2
					c-0.3-0.1-0.6-0.3-0.8-0.6s-0.4-0.5-0.4-0.9c-0.1-0.3-0.1-0.7-0.1-1.1v-5.1h1.3v5.2c0,0.5,0.1,0.9,0.4,1.1
					c0.3,0.3,0.7,0.4,1.2,0.4c0.4,0,0.7-0.1,1-0.2s0.5-0.3,0.7-0.5c0.2-0.2,0.3-0.5,0.4-0.8c0.1-0.3,0.1-0.6,0.1-1v-4.4h1.3v7.8
					H145.8z"/>
				<path fill="#808284" d="M150.1,49.9v1.6h0c0.3-0.6,0.7-1.1,1.1-1.4c0.5-0.3,1-0.4,1.7-0.4V51c-0.5,0-0.9,0.1-1.3,0.2
					c-0.4,0.1-0.7,0.3-0.9,0.6c-0.2,0.3-0.4,0.6-0.5,1s-0.1,0.8-0.1,1.3v3.5h-1.3v-7.8H150.1z"/>
				<path fill="#808284" d="M154.9,55.9c0.1,0.2,0.3,0.3,0.5,0.5c0.2,0.1,0.4,0.2,0.7,0.2c0.2,0,0.5,0.1,0.8,0.1c0.2,0,0.4,0,0.6,0
					c0.2,0,0.4-0.1,0.6-0.2c0.2-0.1,0.3-0.2,0.5-0.4c0.1-0.2,0.2-0.4,0.2-0.6c0-0.3-0.1-0.6-0.4-0.8s-0.6-0.3-0.9-0.4
					c-0.4-0.1-0.8-0.2-1.2-0.3c-0.4-0.1-0.8-0.2-1.2-0.4s-0.7-0.4-0.9-0.7c-0.2-0.3-0.4-0.7-0.4-1.2c0-0.4,0.1-0.7,0.3-1
					c0.2-0.3,0.4-0.5,0.7-0.7c0.3-0.2,0.6-0.3,0.9-0.4c0.3-0.1,0.7-0.1,1-0.1c0.4,0,0.8,0,1.2,0.1c0.4,0.1,0.7,0.2,1,0.4
					c0.3,0.2,0.5,0.4,0.7,0.8c0.2,0.3,0.3,0.7,0.3,1.2h-1.3c0-0.2-0.1-0.5-0.2-0.6c-0.1-0.2-0.2-0.3-0.4-0.4
					c-0.2-0.1-0.4-0.2-0.6-0.2c-0.2,0-0.4-0.1-0.6-0.1c-0.2,0-0.4,0-0.6,0c-0.2,0-0.4,0.1-0.5,0.2c-0.2,0.1-0.3,0.2-0.4,0.3
					s-0.1,0.3-0.1,0.5c0,0.2,0.1,0.4,0.2,0.5c0.2,0.1,0.4,0.3,0.6,0.4c0.2,0.1,0.5,0.2,0.8,0.2c0.3,0.1,0.6,0.1,0.9,0.2
					c0.3,0.1,0.6,0.2,0.9,0.3c0.3,0.1,0.6,0.2,0.8,0.4c0.2,0.2,0.4,0.4,0.6,0.6c0.1,0.2,0.2,0.6,0.2,0.9c0,0.5-0.1,0.9-0.3,1.2
					c-0.2,0.3-0.5,0.6-0.8,0.8c-0.3,0.2-0.7,0.3-1.1,0.4c-0.4,0.1-0.8,0.1-1.2,0.1c-0.4,0-0.8,0-1.2-0.1c-0.4-0.1-0.7-0.2-1-0.4
					c-0.3-0.2-0.5-0.5-0.7-0.8c-0.2-0.3-0.3-0.7-0.3-1.2h1.3C154.7,55.5,154.8,55.7,154.9,55.9z"/>
				<path fill="#808284" d="M171.5,57.8c-0.3,0-0.6-0.1-0.8-0.3c-0.2-0.2-0.3-0.5-0.3-0.9c-0.4,0.4-0.8,0.7-1.2,0.9
					c-0.5,0.2-1,0.3-1.5,0.3c-0.4,0-0.7,0-1-0.1c-0.3-0.1-0.6-0.2-0.8-0.4c-0.2-0.2-0.4-0.4-0.6-0.7c-0.1-0.3-0.2-0.6-0.2-1
					c0-0.4,0.1-0.8,0.2-1.1c0.2-0.3,0.3-0.5,0.6-0.7c0.2-0.2,0.5-0.3,0.8-0.4c0.3-0.1,0.6-0.2,1-0.2c0.3-0.1,0.7-0.1,1-0.2
					c0.3,0,0.6-0.1,0.8-0.2c0.2-0.1,0.4-0.2,0.6-0.3c0.1-0.1,0.2-0.3,0.2-0.5c0-0.3-0.1-0.5-0.2-0.7c-0.1-0.2-0.2-0.3-0.4-0.4
					s-0.4-0.2-0.6-0.2c-0.2,0-0.4,0-0.6,0c-0.5,0-1,0.1-1.3,0.3c-0.4,0.2-0.6,0.6-0.6,1.2h-1.3c0-0.5,0.1-0.9,0.3-1.2
					c0.2-0.3,0.4-0.6,0.7-0.8c0.3-0.2,0.6-0.4,1-0.4c0.4-0.1,0.8-0.1,1.2-0.1c0.3,0,0.7,0,1,0.1c0.3,0.1,0.7,0.2,0.9,0.3
					c0.3,0.2,0.5,0.4,0.7,0.7c0.2,0.3,0.3,0.6,0.3,1.1v4c0,0.3,0,0.5,0.1,0.7c0,0.1,0.2,0.2,0.4,0.2c0.1,0,0.2,0,0.4-0.1v1
					C172.2,57.7,171.9,57.8,171.5,57.8z M169.7,53.9c-0.3,0.1-0.5,0.1-0.8,0.1s-0.6,0.1-0.9,0.1s-0.5,0.1-0.8,0.2
					c-0.2,0.1-0.4,0.2-0.6,0.4c-0.1,0.2-0.2,0.4-0.2,0.8c0,0.2,0,0.4,0.1,0.5c0.1,0.1,0.2,0.3,0.3,0.4s0.3,0.2,0.5,0.2
					c0.2,0,0.4,0.1,0.6,0.1c0.4,0,0.8-0.1,1.1-0.2s0.5-0.3,0.7-0.4c0.2-0.2,0.3-0.4,0.4-0.6s0.1-0.4,0.1-0.6v-1.3
					C170.2,53.7,170,53.8,169.7,53.9z"/>
				<path fill="#808284" d="M179.4,59.8c-0.6,0.6-1.5,0.9-2.7,0.9c-0.4,0-0.7,0-1.1-0.1s-0.7-0.2-1-0.4c-0.3-0.2-0.6-0.4-0.8-0.7
					s-0.3-0.6-0.3-1.1h1.3c0,0.2,0.1,0.4,0.2,0.6c0.1,0.2,0.3,0.3,0.5,0.4c0.2,0.1,0.4,0.2,0.6,0.2s0.5,0.1,0.7,0.1
					c0.4,0,0.8-0.1,1.1-0.2c0.3-0.1,0.5-0.3,0.7-0.6c0.2-0.3,0.3-0.6,0.4-0.9s0.1-0.8,0.1-1.2v-0.5h0c-0.2,0.5-0.6,0.8-1,1.1
					c-0.4,0.2-0.9,0.3-1.4,0.3c-0.6,0-1.1-0.1-1.5-0.3c-0.4-0.2-0.8-0.5-1.1-0.8c-0.3-0.4-0.5-0.8-0.7-1.2c-0.1-0.5-0.2-1-0.2-1.5
					c0-0.5,0.1-0.9,0.2-1.4c0.1-0.5,0.3-0.9,0.6-1.3c0.3-0.4,0.6-0.7,1.1-1s1-0.4,1.7-0.4c0.5,0,0.9,0.1,1.3,0.3s0.7,0.5,1,1h0v-1.1
					h1.2V57C180.3,58.2,180,59.2,179.4,59.8z M177.8,56.3c0.3-0.2,0.5-0.4,0.7-0.7c0.2-0.3,0.3-0.6,0.4-1s0.1-0.7,0.1-1.1
					c0-0.3,0-0.7-0.1-1s-0.2-0.6-0.4-0.9c-0.2-0.3-0.4-0.5-0.7-0.6c-0.3-0.2-0.6-0.2-1-0.2c-0.4,0-0.8,0.1-1,0.2s-0.5,0.4-0.7,0.6
					c-0.2,0.3-0.3,0.6-0.4,0.9s-0.1,0.7-0.1,1.1c0,0.4,0,0.7,0.1,1c0.1,0.4,0.2,0.7,0.4,1c0.2,0.3,0.4,0.5,0.7,0.7
					c0.3,0.2,0.6,0.3,1,0.3S177.5,56.5,177.8,56.3z"/>
				<path fill="#808284" d="M182.1,52.2c0.2-0.5,0.4-0.9,0.7-1.3c0.3-0.4,0.7-0.7,1.2-0.9c0.5-0.2,1-0.3,1.6-0.3
					c0.6,0,1.2,0.1,1.6,0.3s0.9,0.5,1.2,0.9c0.3,0.4,0.6,0.8,0.7,1.3s0.2,1,0.2,1.6s-0.1,1.1-0.2,1.6c-0.2,0.5-0.4,0.9-0.7,1.3
					c-0.3,0.4-0.7,0.6-1.2,0.9s-1,0.3-1.6,0.3c-0.6,0-1.1-0.1-1.6-0.3c-0.5-0.2-0.9-0.5-1.2-0.9c-0.3-0.4-0.6-0.8-0.7-1.3
					c-0.2-0.5-0.2-1-0.2-1.6S181.9,52.6,182.1,52.2z M183.4,55c0.1,0.4,0.3,0.7,0.5,0.9s0.5,0.4,0.8,0.6s0.6,0.2,0.9,0.2
					s0.6-0.1,0.9-0.2s0.6-0.3,0.8-0.6s0.4-0.5,0.5-0.9s0.2-0.8,0.2-1.3c0-0.5-0.1-0.9-0.2-1.3c-0.1-0.4-0.3-0.7-0.5-0.9
					s-0.5-0.4-0.8-0.6s-0.6-0.2-0.9-0.2s-0.6,0.1-0.9,0.2s-0.6,0.3-0.8,0.6s-0.4,0.6-0.5,0.9c-0.1,0.4-0.2,0.8-0.2,1.3
					C183.2,54.2,183.2,54.6,183.4,55z"/>
			</g>
		</g>
		
			<use xlink:href="#iPlayer"  width="32" height="32" id="XMLID_201_" x="-15.4" y="-16.3" transform="matrix(0.9989 0 0 -1 15.4096 15.6985)" overflow="visible"/>
	</g>
</g>
</svg>
