<?xml version="1.0" encoding="utf-8"?>
<!-- Generator: Adobe Illustrator 18.0.0, SVG Export Plug-In . SVG Version: 6.00 Build 0)  -->
<!DOCTYPE svg PUBLIC "-//W3C//DTD SVG 1.0//EN" "http://www.w3.org/TR/2001/REC-SVG-20010904/DTD/svg10.dtd">
<svg version="1.0" id="Layer_1" xmlns="http://www.w3.org/2000/svg" xmlns:xlink="http://www.w3.org/1999/xlink" x="0px" y="0px"
	 viewBox="0 0 13 13" enable-background="new 0 0 13 13" xml:space="preserve">
<g>
	<path fill="#010202" d="M13,8V5h-2.3c-0.1-0.1-0.1-0.3-0.2-0.4L12.2,3L10,0.8L8.4,2.4C8.3,2.4,8.2,2.3,8,2.3V0H5v2.3
		C4.9,2.3,4.7,2.4,4.6,2.4L3,0.8L0.9,3l1.6,1.6C2.4,4.7,2.3,4.9,2.3,5H0v3h2.3c0.1,0.1,0.1,0.3,0.2,0.4L0.9,10L3,12.2l1.6-1.6
		c0.1,0.1,0.3,0.1,0.4,0.2V13h3v-2.3c0.1-0.1,0.3-0.1,0.4-0.2l1.6,1.6l2.1-2.1l-1.6-1.6c0.1-0.1,0.1-0.3,0.2-0.4H13z M6.5,8
		C5.7,8,5,7.3,5,6.5C5,5.7,5.7,5,6.5,5S8,5.7,8,6.5C8,7.3,7.3,8,6.5,8z"/>
</g>
</svg>
